<svg width="661" height="515" viewBox="0 0 661 515" fill="none" xmlns="http://www.w3.org/2000/svg">
<g clip-path="url(#clip0_264_1107)">
<path d="M330.358 -145.686C378.45 -145.685 417.592 -107.368 418.92 -59.5967H418.956V-29.29L440.4 -50.7344L440.437 -50.6982C475.155 -83.537 529.926 -82.9547 563.932 -48.9492C597.937 -14.9436 598.52 39.8276 565.682 74.5459L565.696 74.5605L565.024 75.2324C564.664 75.6056 564.301 75.9784 563.933 76.3467C563.564 76.7153 563.191 77.0787 562.817 77.4395L544.202 96.0547H574.598V96.0908C622.364 97.4242 660.677 136.563 660.677 184.651C660.677 232.74 622.364 271.879 574.598 273.212V273.249H544.237L565.702 294.714L565.654 294.762C598.483 329.48 597.898 384.244 563.896 418.246C529.893 452.248 475.129 452.834 440.41 420.005L440.406 420.01L440.281 419.885C439.715 419.348 439.155 418.801 438.6 418.246C438.044 417.691 437.498 417.13 436.961 416.563L418.956 398.559V428.954H418.918C417.562 476.7 378.432 514.99 330.358 514.99C282.284 514.99 243.154 476.7 241.799 428.954H241.762V398.495L223.117 417.14C222.761 417.508 222.402 417.875 222.038 418.239C221.674 418.604 221.306 418.964 220.937 419.32L220.238 420.019L220.223 420.002C185.504 452.827 130.743 452.24 96.7422 418.239C62.7416 384.238 62.1547 329.479 94.9795 294.76L94.9434 294.723L116.417 273.249H86.0479V273.211C38.296 271.862 0.000226907 232.729 0 184.651C3.66666e-05 136.573 38.2959 97.4409 86.0479 96.0918V96.0547H116.451L98.3896 77.9932C97.8237 77.4559 97.2631 76.9096 96.708 76.3545C96.1528 75.7993 95.6067 75.238 95.0693 74.6719L94.9492 74.5527L94.9531 74.5488C62.1194 39.8303 62.7042 -14.9374 96.708 -48.9414C130.712 -82.9451 185.48 -83.53 220.198 -50.6963L220.245 -50.7432L241.762 -29.2266V-59.5967H241.797C243.125 -107.368 282.266 -145.685 330.358 -145.686Z" fill="#DFE3E7"/>
</g>
<defs>
<clipPath id="clip0_264_1107">
<rect width="660.682" height="660.682" fill="white" transform="translate(0 -145.685)"/>
</clipPath>
</defs>
</svg>
