<svg width="1440" height="966" viewBox="0 0 1440 966" fill="none" xmlns="http://www.w3.org/2000/svg">
<g clip-path="url(#clip0_921_706)">
<rect width="1440" height="966" fill="#2A27E8"/>
<g clip-path="url(#clip1_921_706)">
<path d="M59.4096 552.349L297.65 790.59C301.128 794.068 299.449 799.974 294.615 800.876C286.469 802.398 278.241 803.437 269.972 803.987C269.09 804.042 268.207 803.909 267.38 803.595C266.554 803.281 265.804 802.795 265.182 802.167L47.8317 584.817C47.2046 584.195 46.7178 583.445 46.404 582.619C46.0903 581.793 45.9567 580.909 46.0123 580.027C46.5701 571.668 47.6168 563.445 49.1229 555.385C50.0253 550.55 55.9315 548.871 59.4096 552.349ZM52.6962 648.812C51.1048 642.882 58.1103 639.142 62.4513 643.483L206.515 787.548C210.857 791.889 207.117 798.893 201.188 797.303C128.951 777.935 72.0654 721.05 52.6962 648.812ZM73.5748 489.269C75.5977 485.766 80.3785 485.228 83.2381 488.089L361.911 766.758C364.773 769.619 364.236 774.4 360.73 776.423C354.816 779.837 348.738 782.961 342.519 785.782C340.173 786.849 337.417 786.311 335.596 784.486L65.5111 514.408C63.6884 512.584 63.1503 509.831 64.215 507.483C67.0375 501.264 70.1617 495.187 73.5764 489.272M255.769 384C371.877 384 465.999 478.123 465.999 594.23C465.999 655.868 439.474 711.308 397.214 749.761C394.775 751.982 391.032 751.835 388.699 749.503L100.496 461.3C98.1645 458.967 98.0185 455.224 100.237 452.785C138.691 410.526 194.133 384 255.769 384Z" fill="#2E61E0"/>
</g>
<path d="M750.341 725.928L796.132 683.828C800.643 679.492 804.159 675.918 806.679 673.105C809.198 670.234 811.102 667.363 812.391 664.492C813.739 661.562 814.413 658.457 814.413 655.176C814.413 651.543 813.534 648.35 811.776 645.596C810.018 642.783 807.616 640.645 804.569 639.18C801.522 637.715 798.065 636.982 794.198 636.982C790.272 636.982 786.786 637.773 783.739 639.355C780.751 640.938 778.436 643.252 776.796 646.299C775.214 649.287 774.423 652.773 774.423 656.758H749.286C749.286 648.613 751.161 641.465 754.911 635.312C758.72 629.102 764.022 624.326 770.819 620.986C777.675 617.646 785.555 615.977 794.462 615.977C803.427 615.977 811.337 617.559 818.192 620.723C825.048 623.887 830.35 628.311 834.1 633.994C837.909 639.678 839.813 646.182 839.813 653.506C839.813 658.486 838.846 663.291 836.913 667.92C835.038 672.549 831.698 677.676 826.893 683.301C822.147 688.926 815.38 695.723 806.591 703.691L787.167 722.412V723.291H841.659V745H750.429L750.341 725.928ZM898.974 746.758C888.369 746.758 879.228 744.209 871.552 739.111C863.935 734.014 858.076 726.572 853.974 716.787C849.931 706.943 847.91 695.137 847.91 681.367C847.91 667.598 849.931 655.82 853.974 646.035C858.076 636.25 863.964 628.809 871.64 623.711C879.316 618.555 888.427 615.977 898.974 615.977C909.521 615.977 918.632 618.555 926.308 623.711C933.984 628.809 939.873 636.279 943.974 646.123C948.076 655.908 950.127 667.656 950.127 681.367C950.127 695.195 948.076 707.002 943.974 716.787C939.931 726.572 934.072 734.014 926.396 739.111C918.72 744.209 909.58 746.758 898.974 746.758ZM898.974 724.961C903.896 724.961 908.173 723.35 911.806 720.127C915.498 716.904 918.31 712.041 920.244 705.537C922.177 698.975 923.115 690.918 923.056 681.367C923.056 671.875 922.089 663.877 920.156 657.373C918.222 650.811 915.439 645.889 911.806 642.607C908.173 639.326 903.896 637.686 898.974 637.686C894.052 637.686 889.775 639.326 886.142 642.607C882.568 645.889 879.785 650.811 877.793 657.373C875.8 663.877 874.804 671.875 874.804 681.367C874.804 690.918 875.771 698.975 877.705 705.537C879.697 712.041 882.509 716.904 886.142 720.127C889.775 723.35 894.052 724.961 898.974 724.961ZM957.432 725.928L1003.22 683.828C1007.73 679.492 1011.25 675.918 1013.77 673.105C1016.29 670.234 1018.19 667.363 1019.48 664.492C1020.83 661.562 1021.5 658.457 1021.5 655.176C1021.5 651.543 1020.63 648.35 1018.87 645.596C1017.11 642.783 1014.71 640.645 1011.66 639.18C1008.61 637.715 1005.16 636.982 1001.29 636.982C997.364 636.982 993.877 637.773 990.83 639.355C987.842 640.938 985.528 643.252 983.887 646.299C982.305 649.287 981.514 652.773 981.514 656.758H956.377C956.377 648.613 958.252 641.465 962.002 635.312C965.811 629.102 971.114 624.326 977.911 620.986C984.766 617.646 992.647 615.977 1001.55 615.977C1010.52 615.977 1018.43 617.559 1025.28 620.723C1032.14 623.887 1037.44 628.311 1041.19 633.994C1045 639.678 1046.9 646.182 1046.9 653.506C1046.9 658.486 1045.94 663.291 1044 667.92C1042.13 672.549 1038.79 677.676 1033.98 683.301C1029.24 688.926 1022.47 695.723 1013.68 703.691L994.258 722.412V723.291H1048.75V745H957.52L957.432 725.928ZM1103.43 746.758C1094.76 746.758 1086.91 745.146 1079.87 741.924C1072.84 738.701 1067.31 734.219 1063.26 728.477C1059.28 722.734 1057.2 716.289 1057.02 709.141H1082.6C1082.89 712.422 1083.98 715.322 1085.85 717.842C1087.78 720.361 1090.27 722.354 1093.32 723.818C1096.43 725.225 1099.8 725.928 1103.43 725.928C1107.76 725.928 1111.63 724.961 1115.03 723.027C1118.49 721.094 1121.18 718.428 1123.12 715.029C1125.05 711.572 1126.02 707.676 1126.02 703.34C1126.02 698.828 1125.02 694.873 1123.03 691.475C1121.09 688.018 1118.37 685.322 1114.85 683.389C1111.4 681.396 1107.44 680.4 1102.99 680.4C1098.24 680.342 1094.23 681.191 1090.95 682.949C1087.67 684.707 1085.06 687.402 1083.13 691.035H1059.13L1066.08 617.734H1144.39V639.443H1087.87L1084.36 671.523H1085.32C1087.78 668.301 1091.3 665.693 1095.87 663.701C1100.44 661.709 1105.45 660.713 1110.9 660.713C1118.58 660.713 1125.52 662.5 1131.73 666.074C1138 669.59 1142.86 674.541 1146.32 680.928C1149.84 687.314 1151.56 694.551 1151.51 702.637C1151.56 711.074 1149.54 718.662 1145.44 725.4C1141.4 732.08 1135.74 737.324 1128.48 741.133C1121.21 744.883 1112.86 746.758 1103.43 746.758Z" fill="white"/>
<path d="M116.159 443.734H201.588V465.531H142.526V496.469H197.106V518.178H142.526V549.203H201.764V571H116.159V443.734ZM261.628 487.504H262.683L288.698 443.734H318.581L279.821 507.367L319.46 571H289.05L262.683 527.23H261.628L235.261 571H204.939L244.841 507.367L205.642 443.734H235.7L261.628 487.504ZM323.953 443.734H350.32V496.469H405.516V443.734H431.883V571H405.516V518.178H350.32V571H323.953V443.734ZM469.071 571H442.704V443.734H469.071V571ZM479.892 443.734H530.517C539.599 443.734 547.304 445.111 553.632 447.865C559.961 450.561 564.707 454.369 567.871 459.291C571.093 464.154 572.705 469.867 572.705 476.43C572.705 481.234 571.709 485.512 569.716 489.262C567.783 493.012 565.087 496.117 561.63 498.578C558.232 500.98 554.277 502.68 549.765 503.676V504.906C554.629 505.141 559.199 506.547 563.476 509.125C567.754 511.703 571.181 515.307 573.759 519.936C576.337 524.506 577.627 529.838 577.627 535.932C577.627 542.729 575.957 548.764 572.617 554.037C569.277 559.311 564.296 563.471 557.675 566.518C551.113 569.506 543.173 571 533.857 571H479.892V443.734ZM528.496 549.291C533.476 549.291 537.578 548.646 540.8 547.357C544.082 546.01 546.484 544.164 548.007 541.82C549.531 539.418 550.293 536.576 550.293 533.295C550.293 529.779 549.443 526.615 547.744 523.803C546.045 520.99 543.584 518.852 540.361 517.387C537.197 515.863 533.476 515.102 529.199 515.102H506.259V549.291H528.496ZM526.562 497.084C530.254 497.084 533.564 496.41 536.494 495.062C539.482 493.715 541.796 491.811 543.437 489.35C545.136 486.889 545.986 483.988 545.986 480.648C545.986 477.484 545.254 474.76 543.789 472.475C542.324 470.131 540.156 468.344 537.285 467.113C534.472 465.824 531.074 465.18 527.089 465.18H506.259V497.084H526.562ZM610.069 571H583.702V443.734H610.069V571ZM615.792 443.734H720.03V465.531H681.007V571H654.904V465.531H615.792V443.734ZM752.121 571H725.754V443.734H752.121V571ZM993.754 571H970.902L915.004 490.141H914.037V571H887.67V443.734H910.873L966.332 524.506H967.474V443.734H993.754V571Z" fill="white"/>
<path d="M879.309 507.367C879.309 520.844 876.731 532.533 871.575 542.436C866.477 552.279 859.417 559.809 850.393 565.023C841.428 570.18 831.262 572.758 819.895 572.758C808.528 572.758 798.333 570.18 789.309 565.023C780.344 559.809 773.284 552.25 768.128 542.348C763.03 532.445 760.481 520.785 760.481 507.367C760.481 493.773 763.03 482.055 768.128 472.211C773.284 462.367 780.344 454.867 789.309 449.711C798.333 444.555 808.528 441.977 819.895 441.977C831.262 441.977 841.428 444.555 850.393 449.711C859.417 454.867 866.477 462.367 871.575 472.211C876.731 482.055 879.309 493.773 879.309 507.367ZM852.591 507.367C852.591 498.402 851.243 490.785 848.548 484.516C845.911 478.246 842.132 473.5 837.21 470.277C832.346 466.996 826.575 465.355 819.895 465.355C813.274 465.355 807.503 466.996 802.581 470.277C797.718 473.5 793.938 478.246 791.243 484.516C788.548 490.785 787.2 498.402 787.2 507.367C787.2 516.332 788.548 523.949 791.243 530.219C793.938 536.488 797.718 541.264 802.581 544.545C807.503 547.768 813.274 549.379 819.895 549.379C826.575 549.379 832.346 547.768 837.21 544.545C842.132 541.264 845.911 536.488 848.548 530.219C851.243 523.949 852.591 516.332 852.591 507.367Z" fill="#F75820"/>
<rect x="803" y="243" width="27" height="177" fill="#2A27E8"/>
<rect x="1320" y="243" width="120" height="177" fill="#2A27E8"/>
<path d="M115.954 396.5L159.899 269.234H193.825L237.858 396.5H209.47L177.389 297.975H176.335L144.167 396.5H115.954ZM210.7 346.49V367.145H142.761V346.49H210.7ZM241.472 269.234H291.218C300.711 269.234 308.884 271.051 315.74 274.684C322.654 278.258 327.898 283.297 331.472 289.801C335.046 296.305 336.834 303.775 336.834 312.213C336.834 320.709 334.988 328.18 331.296 334.625C327.664 341.012 322.361 346.021 315.388 349.654C308.474 353.229 300.212 355.016 290.603 355.016H258.611V333.746H286.472C291.57 333.746 295.847 332.867 299.304 331.109C302.82 329.293 305.427 326.773 307.127 323.551C308.826 320.328 309.675 316.549 309.675 312.213C309.675 307.877 308.826 304.127 307.127 300.963C305.427 297.74 302.82 295.279 299.304 293.58C295.847 291.822 291.541 290.943 286.384 290.943H267.839V396.5H241.472V269.234ZM342.821 269.234H392.567C402.059 269.234 410.233 271.051 417.088 274.684C424.002 278.258 429.246 283.297 432.821 289.801C436.395 296.305 438.182 303.775 438.182 312.213C438.182 320.709 436.336 328.18 432.645 334.625C429.012 341.012 423.709 346.021 416.737 349.654C409.823 353.229 401.561 355.016 391.952 355.016H359.959V333.746H387.821C392.918 333.746 397.196 332.867 400.653 331.109C404.168 329.293 406.776 326.773 408.475 323.551C410.174 320.328 411.024 316.549 411.024 312.213C411.024 307.877 410.174 304.127 408.475 300.963C406.776 297.74 404.168 295.279 400.653 293.58C397.196 291.822 392.889 290.943 387.733 290.943H369.188V396.5H342.821V269.234ZM513.075 305.621C512.724 302.223 511.64 299.322 509.823 296.92C508.066 294.518 505.605 292.701 502.441 291.471C499.277 290.24 495.497 289.625 491.103 289.625C486.825 289.625 483.105 290.24 479.941 291.471C476.835 292.701 474.462 294.43 472.821 296.656C471.181 298.824 470.361 301.314 470.361 304.127C470.302 308.404 472.06 311.744 475.634 314.146C479.267 316.549 484.277 318.541 490.663 320.123L502.089 322.848C514.159 325.543 523.505 329.908 530.126 335.943C536.806 341.92 540.175 350.006 540.234 360.201C540.234 367.877 538.271 374.586 534.345 380.328C530.419 386.07 524.765 390.494 517.382 393.6C509.999 396.705 501.181 398.258 490.927 398.258C480.673 398.258 471.737 396.676 464.12 393.512C456.562 390.348 450.702 385.689 446.542 379.537C442.382 373.326 440.155 365.738 439.862 356.773H465.527C465.878 360.934 467.138 364.449 469.306 367.32C471.474 370.191 474.404 372.359 478.095 373.824C481.786 375.289 485.976 376.021 490.663 376.021C495.234 376.021 499.247 375.348 502.704 374C506.161 372.652 508.827 370.777 510.702 368.375C512.577 365.914 513.515 363.131 513.515 360.025C513.515 357.213 512.695 354.84 511.054 352.906C509.413 350.914 507.011 349.244 503.847 347.896C500.741 346.49 496.728 345.172 491.806 343.941L477.831 340.602C466.698 337.848 458.144 333.658 452.167 328.033C446.249 322.35 443.29 314.967 443.29 305.885C443.29 298.326 445.341 291.646 449.443 285.846C453.603 280.045 459.316 275.533 466.581 272.311C473.905 269.088 482.167 267.477 491.366 267.477C500.624 267.477 508.798 269.088 515.888 272.311C522.978 275.475 528.486 279.957 532.411 285.758C536.337 291.5 538.359 298.121 538.476 305.621H513.075Z" fill="white"/>
<line y1="593" x2="1440" y2="593" stroke="#E9ECEF" stroke-width="2" stroke-dasharray="2 2"/>
<line y1="419" x2="1440" y2="419" stroke="#E9ECEF" stroke-width="2" stroke-dasharray="2 2"/>
<path d="M1050.74 560.326C1048.24 560.326 1046.1 559.441 1044.32 557.671C1042.54 555.9 1041.66 553.761 1041.67 551.253C1041.68 548.745 1042.56 546.606 1044.32 544.836C1046.08 543.066 1048.22 542.181 1050.74 542.181C1051.35 542.181 1051.9 542.225 1052.37 542.313C1052.84 542.412 1053.34 542.584 1053.86 542.83L1086.58 510.116C1085.96 508.479 1085.83 506.802 1086.17 505.086C1086.51 503.37 1087.33 501.875 1088.6 500.601C1089.88 499.328 1091.38 498.516 1093.09 498.167C1094.81 497.823 1096.49 497.958 1098.12 498.573L1130.84 465.86L1130.39 464.37C1130.25 463.897 1130.18 463.354 1130.18 462.739C1130.18 460.241 1131.07 458.102 1132.85 456.322C1134.63 454.542 1136.77 453.657 1139.26 453.667C1141.75 453.677 1143.89 454.562 1145.68 456.322C1147.46 458.083 1148.35 460.222 1148.33 462.739C1148.32 465.257 1147.43 467.396 1145.68 469.157C1143.92 470.917 1141.78 471.802 1139.26 471.812C1137.74 471.812 1136.7 471.596 1136.14 471.163L1103.42 503.839C1104.04 505.472 1104.17 507.154 1103.83 508.885C1103.48 510.616 1102.69 512.106 1101.44 513.355C1100.11 514.682 1098.58 515.521 1096.87 515.87C1095.14 516.214 1093.47 516.067 1091.83 515.427L1059.93 547.285L1060.22 547.565H1086.72C1087.5 545.923 1088.62 544.612 1090.08 543.634C1091.53 542.66 1093.16 542.173 1094.96 542.173C1096.84 542.173 1098.54 542.655 1100.06 543.619C1101.57 544.578 1102.68 545.893 1103.37 547.565H1130.89C1131.67 545.893 1132.8 544.575 1134.27 543.612C1135.74 542.653 1137.41 542.173 1139.26 542.173C1141.76 542.173 1143.9 543.063 1145.68 544.843C1147.46 546.624 1148.34 548.76 1148.33 551.253C1148.32 553.746 1147.44 555.886 1145.68 557.671C1143.92 559.456 1141.78 560.341 1139.26 560.326C1137.41 560.326 1135.74 559.842 1134.27 558.873C1132.8 557.899 1131.67 556.589 1130.89 554.941H1103.37C1102.68 556.613 1101.57 557.931 1100.04 558.895C1098.5 559.854 1096.82 560.333 1095 560.333C1093.17 560.333 1091.53 559.847 1090.08 558.873C1088.62 557.899 1087.5 556.589 1086.72 554.941H1059.02C1058.33 556.589 1057.23 557.899 1055.7 558.873C1054.17 559.847 1052.52 560.333 1050.74 560.333M1050.74 516.076C1048.24 516.076 1046.1 515.186 1044.32 513.406C1042.54 511.626 1041.66 509.489 1041.67 506.996C1041.68 504.503 1042.56 502.364 1044.32 500.579C1046.08 498.794 1048.22 497.909 1050.74 497.924C1053.26 497.938 1055.4 498.824 1057.16 500.579C1058.92 502.335 1059.8 504.474 1059.81 506.996C1059.82 509.519 1058.94 511.658 1057.16 513.414C1055.38 515.169 1053.24 516.054 1050.74 516.069M1050.74 471.812C1048.24 471.812 1046.1 470.927 1044.32 469.157C1042.54 467.386 1041.66 465.247 1041.67 462.739C1041.68 460.232 1042.56 458.092 1044.32 456.322C1046.08 454.552 1048.22 453.667 1050.74 453.667C1053.26 453.667 1055.4 454.552 1057.16 456.322C1058.92 458.092 1059.8 460.232 1059.81 462.739C1059.82 465.247 1058.94 467.386 1057.16 469.157C1055.38 470.927 1053.24 471.812 1050.74 471.812ZM1095 471.812C1092.5 471.812 1090.36 470.927 1088.58 469.157C1086.8 467.386 1085.92 465.247 1085.93 462.739C1085.94 460.232 1086.82 458.092 1088.58 456.322C1090.34 454.552 1092.48 453.667 1095 453.667C1097.52 453.667 1099.66 454.552 1101.42 456.322C1103.18 458.092 1104.06 460.232 1104.07 462.739C1104.08 465.247 1103.2 467.386 1101.42 469.157C1099.64 470.927 1097.5 471.812 1095 471.812ZM1139.26 516.069C1136.76 516.069 1134.62 515.184 1132.84 513.414C1131.06 511.643 1130.18 509.504 1130.19 506.996C1130.2 504.488 1131.08 502.349 1132.84 500.579C1134.6 498.809 1136.74 497.924 1139.26 497.924C1141.78 497.924 1143.92 498.809 1145.68 500.579C1147.44 502.349 1148.32 504.488 1148.33 506.996C1148.34 509.504 1147.46 511.643 1145.68 513.414C1143.9 515.184 1141.76 516.069 1139.26 516.069Z" fill="white"/>
<path d="M1262.78 462.101V550.601C1262.78 560.454 1269.51 566 1276.89 566C1283.62 566 1291 561.339 1291 550.601V462.75C1291 453.664 1284.27 448 1276.89 448C1269.51 448 1262.78 454.254 1262.78 462.101ZM1225.89 507V550.601C1225.89 560.513 1232.74 566 1240 566C1246.73 566 1254.11 561.339 1254.11 550.601V507.649C1254.11 498.563 1247.38 492.899 1240 492.899C1232.62 492.899 1225.89 499.153 1225.89 507ZM1203.11 537.857C1210.9 537.857 1217.22 544.17 1217.22 551.899C1217.22 555.639 1215.73 559.226 1213.08 561.87C1210.44 564.515 1206.85 566 1203.11 566C1199.37 566 1195.78 564.515 1193.13 561.87C1190.49 559.226 1189 555.639 1189 551.899C1189 544.17 1195.32 537.857 1203.11 537.857Z" fill="white"/>
<path d="M937 809C941.221 809 944.654 812.363 944.771 816.556H944.777V819.224L946.664 817.337L946.669 817.342C949.717 814.46 954.522 814.509 957.507 817.494C960.492 820.479 960.541 825.284 957.659 828.332L957.663 828.336L957.534 828.465C957.525 828.474 957.515 828.485 957.506 828.494C957.497 828.503 957.487 828.512 957.478 828.521L955.777 830.222H958.444V830.228C962.637 830.345 966 833.778 966 837.999C966 842.22 962.637 845.654 958.444 845.771V845.777H955.777L957.663 847.663L957.658 847.668C960.539 850.716 960.488 855.521 957.504 858.506C954.519 861.49 949.715 861.54 946.667 858.659L946.663 858.663L946.534 858.534C946.525 858.525 946.514 858.515 946.505 858.506C946.496 858.497 946.487 858.487 946.478 858.478L944.777 856.777V859.444H944.771C944.654 863.637 941.221 867 937 867C932.779 867 929.345 863.637 929.228 859.444H929.222V856.776L927.544 858.454C927.527 858.471 927.511 858.49 927.494 858.507C927.477 858.524 927.459 858.541 927.441 858.558L927.336 858.662L927.333 858.659C924.285 861.541 919.479 861.492 916.494 858.507C913.509 855.522 913.46 850.716 916.342 847.668L916.337 847.664L918.224 845.777H915.555V845.771C911.362 845.653 908 842.22 908 837.999C908 833.778 911.363 830.346 915.555 830.228V830.222H918.222L916.521 828.521C916.512 828.512 916.502 828.503 916.492 828.493C916.483 828.484 916.474 828.474 916.465 828.465L916.336 828.336L916.34 828.333C913.458 825.285 913.508 820.48 916.492 817.495C919.477 814.51 924.283 814.46 927.331 817.342L927.336 817.337L929.222 819.222V816.556H929.228C929.345 812.363 932.779 809 937 809Z" fill="#F75820"/>
<path d="M138.555 180.828C138.242 178.055 135.703 176.453 132.305 176.453C128.555 176.453 126.094 178.406 126.094 181.102C126.094 184.07 129.414 185.164 131.562 185.711L134.375 186.492C137.422 187.273 142.383 189.031 142.383 194.305C142.383 198.914 138.672 202.508 132.109 202.508C126.016 202.508 122.227 199.344 121.914 194.656H125.508C125.82 197.82 128.75 199.305 132.109 199.305C136.016 199.305 138.945 197.312 138.945 194.227C138.945 191.492 136.328 190.438 133.359 189.578L129.883 188.641C125.43 187.352 122.695 185.086 122.695 181.258C122.695 176.492 126.953 173.328 132.422 173.328C137.891 173.328 141.836 176.531 141.992 180.828H138.555ZM146.422 173.719H150.641L160.172 197H160.523L170.055 173.719H174.273V202H170.953V180.633H170.68L161.891 202H158.766L149.977 180.633H149.742V202H146.422V173.719ZM184.758 202L177.023 173.719H180.578L186.477 196.609H186.75L192.727 173.719H196.672L202.688 196.609H202.922L208.82 173.719H212.375L204.641 202H201.008L194.836 179.617H194.602L188.391 202H184.758ZM233.641 173.719H237.156V192.43C237.156 198.25 232.82 202.508 226.141 202.508C219.461 202.508 215.125 198.25 215.125 192.43V173.719H218.641V192.156C218.641 196.258 221.492 199.227 226.141 199.227C230.828 199.227 233.641 196.258 233.641 192.156V173.719ZM251.445 202V173.719H261.055C267.695 173.719 270.703 177.664 270.703 182.703C270.703 187.703 267.695 191.727 261.094 191.727H254.961V202H251.445ZM254.961 188.602H260.938C265.43 188.602 267.227 186.062 267.227 182.703C267.227 179.305 265.43 176.844 260.898 176.844H254.961V188.602ZM274.195 202V180.789H277.438V184.031H277.672C278.453 181.883 280.641 180.438 283.141 180.438C283.648 180.438 284.508 180.477 284.898 180.516V183.914C284.664 183.836 283.727 183.68 282.867 183.68C279.82 183.68 277.555 185.789 277.555 188.641V202H274.195ZM295.148 202.43C289.367 202.43 285.461 198.094 285.461 191.492C285.461 184.891 289.367 180.516 295.148 180.516C300.891 180.516 304.758 184.891 304.758 191.492C304.758 198.094 300.891 202.43 295.148 202.43ZM295.148 199.461C299.406 199.461 301.398 195.711 301.398 191.492C301.398 187.273 299.406 183.484 295.148 183.484C290.812 183.484 288.82 187.273 288.82 191.492C288.82 195.711 290.812 199.461 295.148 199.461ZM316.766 210.398C311.648 210.398 308.172 208.172 307.781 204.227H311.297C311.766 206.375 313.758 207.469 316.766 207.469C320.398 207.469 322.625 205.906 322.625 202.391V198.094H322.352C321.648 199.266 320.281 201.688 316.18 201.688C311.023 201.688 307.156 197.781 307.156 191.102C307.156 184.578 310.906 180.516 316.219 180.516C320.32 180.516 321.648 183.016 322.43 184.148H322.703V180.789H325.984V202.586C325.984 208.055 321.922 210.398 316.766 210.398ZM316.648 198.68C320.516 198.68 322.703 195.906 322.703 191.219C322.703 186.688 320.594 183.523 316.648 183.523C312.586 183.523 310.555 186.961 310.555 191.219C310.555 195.633 312.625 198.68 316.648 198.68ZM330.336 202V180.789H333.578V184.031H333.812C334.594 181.883 336.781 180.438 339.281 180.438C339.789 180.438 340.648 180.477 341.039 180.516V183.914C340.805 183.836 339.867 183.68 339.008 183.68C335.961 183.68 333.695 185.789 333.695 188.641V202H330.336ZM342.266 195.984C342.266 191.102 346.562 190.008 350.234 189.734C351.582 189.637 355.02 189.461 355.977 189.422V187.703C355.977 185.008 354.375 183.445 351.172 183.445C348.477 183.445 346.875 184.695 346.406 186.297H342.891C343.32 182.898 346.641 180.516 351.328 180.516C354.102 180.516 359.297 181.336 359.297 188.016V202H355.977V199.109H355.82C355.117 200.555 353.164 202.508 349.492 202.508C345.469 202.508 342.266 200.125 342.266 195.984ZM345.625 196.141C345.625 198.367 347.5 199.5 350.078 199.5C353.867 199.5 355.977 196.961 355.977 194.305V192.156L350.625 192.547C347.578 192.742 345.625 193.836 345.625 196.141ZM363.688 202V180.789H366.93V184.109H367.203C368.102 181.844 370.133 180.516 372.906 180.516C375.68 180.516 377.555 181.844 378.57 184.109H378.805C379.898 181.922 382.125 180.516 385.172 180.516C388.961 180.516 391.656 182.82 391.656 187.82V202H388.297V187.859C388.297 184.734 386.305 183.523 384 183.523C381.031 183.523 379.352 185.516 379.352 188.211V202H375.953V187.508C375.953 185.125 374.234 183.523 371.812 183.523C369.273 183.523 367.047 185.672 367.047 188.758V202H363.688ZM396.047 202V180.789H399.289V184.109H399.562C400.461 181.844 402.492 180.516 405.266 180.516C408.039 180.516 409.914 181.844 410.93 184.109H411.164C412.258 181.922 414.484 180.516 417.531 180.516C421.32 180.516 424.016 182.82 424.016 187.82V202H420.656V187.859C420.656 184.734 418.664 183.523 416.359 183.523C413.391 183.523 411.711 185.516 411.711 188.211V202H408.312V187.508C408.312 185.125 406.594 183.523 404.172 183.523C401.633 183.523 399.406 185.672 399.406 188.758V202H396.047ZM428.406 202V180.789H431.766V202H428.406ZM430.086 177.273C428.797 177.273 427.742 176.297 427.742 175.047C427.742 173.797 428.797 172.82 430.086 172.82C431.375 172.82 432.469 173.797 432.469 175.047C432.469 176.297 431.375 177.273 430.086 177.273ZM439.477 189.266V202H436.117V180.789H439.359V184.109H439.633C440.648 181.961 442.602 180.516 445.844 180.516C450.141 180.516 452.992 183.133 452.992 188.523V202H449.633V188.758C449.633 185.477 447.836 183.523 444.828 183.523C441.742 183.523 439.477 185.594 439.477 189.266ZM465.977 210.398C460.859 210.398 457.383 208.172 456.992 204.227H460.508C460.977 206.375 462.969 207.469 465.977 207.469C469.609 207.469 471.836 205.906 471.836 202.391V198.094H471.562C470.859 199.266 469.492 201.688 465.391 201.688C460.234 201.688 456.367 197.781 456.367 191.102C456.367 184.578 460.117 180.516 465.43 180.516C469.531 180.516 470.859 183.016 471.641 184.148H471.914V180.789H475.195V202.586C475.195 208.055 471.133 210.398 465.977 210.398ZM465.859 198.68C469.727 198.68 471.914 195.906 471.914 191.219C471.914 186.688 469.805 183.523 465.859 183.523C461.797 183.523 459.766 186.961 459.766 191.219C459.766 195.633 461.836 198.68 465.859 198.68ZM508.312 182.625C507.492 178.719 504.133 176.609 500.422 176.609C495.305 176.609 491.32 180.555 491.32 187.859C491.32 195.164 495.305 199.109 500.422 199.109C504.133 199.109 507.453 197 508.312 193.133H511.828C510.812 198.914 506.164 202.391 500.422 202.391C493.156 202.391 487.922 196.805 487.922 187.859C487.922 178.914 493.156 173.328 500.422 173.328C506.125 173.328 510.773 176.766 511.828 182.625H508.312ZM518.68 173.719V202H515.32V173.719H518.68ZM536.43 193.289V180.789H539.75V202H536.43V198.406H536.195C535.18 200.555 533.109 202.273 529.906 202.273C525.883 202.273 523.031 199.656 523.031 194.266V180.789H526.391V194.031C526.391 197.078 528.305 199.031 531 199.031C533.383 199.031 536.43 197.234 536.43 193.289ZM544.57 202V173.719H547.93V184.148H548.203C548.945 183.016 550.195 180.516 554.336 180.516C559.648 180.516 563.398 184.734 563.398 191.453C563.398 198.172 559.648 202.43 554.375 202.43C550.312 202.43 548.945 199.93 548.203 198.758H547.812V202H544.57ZM547.852 191.375C547.852 196.141 550 199.422 553.867 199.422C557.891 199.422 560 195.906 560 191.375C560 186.961 557.969 183.523 553.867 183.523C549.961 183.523 547.852 186.688 547.852 191.375Z" fill="#CCD7F2"/>
<rect x="984" y="813.116" width="221" height="50" rx="25" fill="#D9E3FC"/>
<path d="M1036.63 847.116L1031.78 830.147H1035.62L1038.48 842.007H1038.62L1041.74 830.147H1045.05L1048.16 842.03H1048.3L1051.16 830.147H1055.01L1050.15 847.116H1046.71L1043.48 835.913H1043.33L1040.08 847.116H1036.63ZM1056.21 847.116V830.147H1067.6V833.054H1059.73V837.179H1067.02V840.085H1059.73V844.21H1067.62V847.116H1056.21ZM1069.74 847.116V830.147H1076.49C1080.24 830.147 1082.12 831.952 1082.12 834.507C1082.12 836.499 1080.83 837.741 1079.07 838.139V838.304C1080.99 838.397 1082.8 839.921 1082.8 842.429C1082.8 845.124 1080.78 847.116 1076.94 847.116H1069.74ZM1076.24 844.21C1078.28 844.21 1079.14 843.366 1079.14 842.1C1079.14 840.671 1078.06 839.663 1076.33 839.663H1073.26V844.21H1076.24ZM1075.98 837.249C1077.45 837.249 1078.56 836.429 1078.56 835.069C1078.56 833.85 1077.67 833.007 1076.05 833.007H1073.26V837.249H1075.98Z" fill="#333333"/>
<path d="M1096.76 847.374C1093.24 847.374 1091.09 845.288 1091.09 842.616C1091.09 840.624 1092.34 839.44 1094.2 838.163C1093.29 837.026 1092.56 835.784 1092.56 834.272C1092.56 831.811 1094.39 829.913 1097.18 829.913C1099.9 829.913 1101.56 831.741 1101.56 833.897C1101.56 835.514 1100.74 836.78 1099.31 837.811L1098.33 838.538L1101.16 841.796C1101.6 840.964 1101.87 839.968 1101.87 838.866H1104.75C1104.75 841.175 1104.15 842.944 1103.23 844.186L1105.78 847.116H1102.15L1101.12 845.944C1099.86 846.94 1098.26 847.374 1096.76 847.374ZM1094.46 842.429C1094.46 843.647 1095.42 844.561 1096.92 844.561C1097.71 844.561 1098.5 844.315 1099.24 843.858L1095.98 840.225L1095.87 840.319C1094.91 841.022 1094.46 841.772 1094.46 842.429ZM1095.54 834.319C1095.54 835.034 1095.98 835.749 1096.64 836.546L1097.53 835.96C1098.38 835.421 1098.77 834.835 1098.77 834.085C1098.77 833.429 1098.21 832.725 1097.2 832.725C1096.22 832.725 1095.54 833.452 1095.54 834.319Z" fill="#333333"/>
<path d="M1116.3 847.116H1112.5L1118.39 830.147H1122.91L1128.77 847.116H1124.99L1123.73 843.202H1117.59L1116.3 847.116ZM1118.48 840.46H1122.84L1120.71 833.968H1120.59L1118.48 840.46ZM1130.09 847.116V830.147H1136.75C1140.61 830.147 1142.82 832.514 1142.82 835.866C1142.82 839.264 1140.57 841.585 1136.65 841.585H1133.61V847.116H1130.09ZM1133.61 838.749H1136.09C1138.18 838.749 1139.18 837.577 1139.18 835.866C1139.18 834.179 1138.18 833.03 1136.09 833.03H1133.61V838.749ZM1144.44 847.116V830.147H1151.1C1154.97 830.147 1157.17 832.514 1157.17 835.866C1157.17 839.264 1154.92 841.585 1151.01 841.585H1147.96V847.116H1144.44ZM1147.96 838.749H1150.44C1152.53 838.749 1153.54 837.577 1153.54 835.866C1153.54 834.179 1152.53 833.03 1150.44 833.03H1147.96V838.749Z" fill="#333333"/>
</g>
<defs>
<clipPath id="clip0_921_706">
<rect width="1440" height="966" fill="white"/>
</clipPath>
<clipPath id="clip1_921_706">
<rect width="420" height="420" fill="white" transform="translate(46 384)"/>
</clipPath>
</defs>
</svg>
