<svg width="1440" height="756" viewBox="0 0 1440 756" fill="none" xmlns="http://www.w3.org/2000/svg">
<g clip-path="url(#clip0_921_706)">
<rect width="1440" height="756" fill="#2A27E8"/>
<g clip-path="url(#clip1_921_706)">
<path d="M59.4096 430.349L297.65 668.59C301.128 672.068 299.449 677.974 294.615 678.876C286.469 680.398 278.241 681.437 269.972 681.987C269.09 682.042 268.207 681.909 267.38 681.595C266.554 681.281 265.804 680.795 265.182 680.167L47.8317 462.817C47.2046 462.195 46.7178 461.445 46.404 460.619C46.0903 459.793 45.9567 458.909 46.0123 458.027C46.5701 449.668 47.6168 441.445 49.1229 433.385C50.0253 428.55 55.9315 426.871 59.4096 430.349ZM52.6962 526.812C51.1048 520.882 58.1103 517.142 62.4513 521.483L206.515 665.548C210.857 669.889 207.117 676.893 201.188 675.303C128.951 655.935 72.0654 599.05 52.6962 526.812ZM73.5748 367.269C75.5977 363.766 80.3785 363.228 83.2381 366.089L361.911 644.758C364.773 647.619 364.236 652.4 360.73 654.423C354.816 657.837 348.738 660.961 342.519 663.782C340.173 664.849 337.417 664.311 335.596 662.486L65.5111 392.408C63.6884 390.584 63.1503 387.831 64.215 385.483C67.0375 379.264 70.1617 373.187 73.5764 367.272M255.769 262C371.877 262 465.999 356.123 465.999 472.23C465.999 533.868 439.474 589.308 397.214 627.761C394.775 629.982 391.032 629.835 388.699 627.503L100.496 339.3C98.1645 336.967 98.0185 333.224 100.237 330.785C138.691 288.526 194.133 262 255.769 262Z" fill="#2E61E0"/>
</g>
<path d="M750.341 603.928L796.132 561.828C800.643 557.492 804.159 553.918 806.679 551.105C809.198 548.234 811.102 545.363 812.391 542.492C813.739 539.562 814.413 536.457 814.413 533.176C814.413 529.543 813.534 526.35 811.776 523.596C810.018 520.783 807.616 518.645 804.569 517.18C801.522 515.715 798.065 514.982 794.198 514.982C790.272 514.982 786.786 515.773 783.739 517.355C780.751 518.938 778.436 521.252 776.796 524.299C775.214 527.287 774.423 530.773 774.423 534.758H749.286C749.286 526.613 751.161 519.465 754.911 513.312C758.72 507.102 764.022 502.326 770.819 498.986C777.675 495.646 785.555 493.977 794.462 493.977C803.427 493.977 811.337 495.559 818.192 498.723C825.048 501.887 830.35 506.311 834.1 511.994C837.909 517.678 839.813 524.182 839.813 531.506C839.813 536.486 838.846 541.291 836.913 545.92C835.038 550.549 831.698 555.676 826.893 561.301C822.147 566.926 815.38 573.723 806.591 581.691L787.167 600.412V601.291H841.659V623H750.429L750.341 603.928ZM898.974 624.758C888.369 624.758 879.228 622.209 871.552 617.111C863.935 612.014 858.076 604.572 853.974 594.787C849.931 584.943 847.91 573.137 847.91 559.367C847.91 545.598 849.931 533.82 853.974 524.035C858.076 514.25 863.964 506.809 871.64 501.711C879.316 496.555 888.427 493.977 898.974 493.977C909.521 493.977 918.632 496.555 926.308 501.711C933.984 506.809 939.873 514.279 943.974 524.123C948.076 533.908 950.127 545.656 950.127 559.367C950.127 573.195 948.076 585.002 943.974 594.787C939.931 604.572 934.072 612.014 926.396 617.111C918.72 622.209 909.58 624.758 898.974 624.758ZM898.974 602.961C903.896 602.961 908.173 601.35 911.806 598.127C915.498 594.904 918.31 590.041 920.244 583.537C922.177 576.975 923.115 568.918 923.056 559.367C923.056 549.875 922.089 541.877 920.156 535.373C918.222 528.811 915.439 523.889 911.806 520.607C908.173 517.326 903.896 515.686 898.974 515.686C894.052 515.686 889.775 517.326 886.142 520.607C882.568 523.889 879.785 528.811 877.793 535.373C875.8 541.877 874.804 549.875 874.804 559.367C874.804 568.918 875.771 576.975 877.705 583.537C879.697 590.041 882.509 594.904 886.142 598.127C889.775 601.35 894.052 602.961 898.974 602.961ZM957.432 603.928L1003.22 561.828C1007.73 557.492 1011.25 553.918 1013.77 551.105C1016.29 548.234 1018.19 545.363 1019.48 542.492C1020.83 539.562 1021.5 536.457 1021.5 533.176C1021.5 529.543 1020.63 526.35 1018.87 523.596C1017.11 520.783 1014.71 518.645 1011.66 517.18C1008.61 515.715 1005.16 514.982 1001.29 514.982C997.364 514.982 993.877 515.773 990.83 517.355C987.842 518.938 985.528 521.252 983.887 524.299C982.305 527.287 981.514 530.773 981.514 534.758H956.377C956.377 526.613 958.252 519.465 962.002 513.312C965.811 507.102 971.114 502.326 977.911 498.986C984.766 495.646 992.647 493.977 1001.55 493.977C1010.52 493.977 1018.43 495.559 1025.28 498.723C1032.14 501.887 1037.44 506.311 1041.19 511.994C1045 517.678 1046.9 524.182 1046.9 531.506C1046.9 536.486 1045.94 541.291 1044 545.92C1042.13 550.549 1038.79 555.676 1033.98 561.301C1029.24 566.926 1022.47 573.723 1013.68 581.691L994.258 600.412V601.291H1048.75V623H957.52L957.432 603.928ZM1103.43 624.758C1094.76 624.758 1086.91 623.146 1079.87 619.924C1072.84 616.701 1067.31 612.219 1063.26 606.477C1059.28 600.734 1057.2 594.289 1057.02 587.141H1082.6C1082.89 590.422 1083.98 593.322 1085.85 595.842C1087.78 598.361 1090.27 600.354 1093.32 601.818C1096.43 603.225 1099.8 603.928 1103.43 603.928C1107.76 603.928 1111.63 602.961 1115.03 601.027C1118.49 599.094 1121.18 596.428 1123.12 593.029C1125.05 589.572 1126.02 585.676 1126.02 581.34C1126.02 576.828 1125.02 572.873 1123.03 569.475C1121.09 566.018 1118.37 563.322 1114.85 561.389C1111.4 559.396 1107.44 558.4 1102.99 558.4C1098.24 558.342 1094.23 559.191 1090.95 560.949C1087.67 562.707 1085.06 565.402 1083.13 569.035H1059.13L1066.08 495.734H1144.39V517.443H1087.87L1084.36 549.523H1085.32C1087.78 546.301 1091.3 543.693 1095.87 541.701C1100.44 539.709 1105.45 538.713 1110.9 538.713C1118.58 538.713 1125.52 540.5 1131.73 544.074C1138 547.59 1142.86 552.541 1146.32 558.928C1149.84 565.314 1151.56 572.551 1151.51 580.637C1151.56 589.074 1149.54 596.662 1145.44 603.4C1141.4 610.08 1135.74 615.324 1128.48 619.133C1121.21 622.883 1112.86 624.758 1103.43 624.758Z" fill="white"/>
<path d="M116.159 321.734H201.588V343.531H142.526V374.469H197.106V396.178H142.526V427.203H201.764V449H116.159V321.734ZM261.628 365.504H262.683L288.698 321.734H318.581L279.821 385.367L319.46 449H289.05L262.683 405.23H261.628L235.261 449H204.939L244.841 385.367L205.642 321.734H235.7L261.628 365.504ZM323.953 321.734H350.32V374.469H405.516V321.734H431.883V449H405.516V396.178H350.32V449H323.953V321.734ZM469.071 449H442.704V321.734H469.071V449ZM479.892 321.734H530.517C539.599 321.734 547.304 323.111 553.632 325.865C559.961 328.561 564.707 332.369 567.871 337.291C571.093 342.154 572.705 347.867 572.705 354.43C572.705 359.234 571.709 363.512 569.716 367.262C567.783 371.012 565.087 374.117 561.63 376.578C558.232 378.98 554.277 380.68 549.765 381.676V382.906C554.629 383.141 559.199 384.547 563.476 387.125C567.754 389.703 571.181 393.307 573.759 397.936C576.337 402.506 577.627 407.838 577.627 413.932C577.627 420.729 575.957 426.764 572.617 432.037C569.277 437.311 564.296 441.471 557.675 444.518C551.113 447.506 543.173 449 533.857 449H479.892V321.734ZM528.496 427.291C533.476 427.291 537.578 426.646 540.8 425.357C544.082 424.01 546.484 422.164 548.007 419.82C549.531 417.418 550.293 414.576 550.293 411.295C550.293 407.779 549.443 404.615 547.744 401.803C546.045 398.99 543.584 396.852 540.361 395.387C537.197 393.863 533.476 393.102 529.199 393.102H506.259V427.291H528.496ZM526.562 375.084C530.254 375.084 533.564 374.41 536.494 373.062C539.482 371.715 541.796 369.811 543.437 367.35C545.136 364.889 545.986 361.988 545.986 358.648C545.986 355.484 545.254 352.76 543.789 350.475C542.324 348.131 540.156 346.344 537.285 345.113C534.472 343.824 531.074 343.18 527.089 343.18H506.259V375.084H526.562ZM610.069 449H583.702V321.734H610.069V449ZM615.792 321.734H720.03V343.531H681.007V449H654.904V343.531H615.792V321.734ZM752.121 449H725.754V321.734H752.121V449ZM993.754 449H970.902L915.004 368.141H914.037V449H887.67V321.734H910.873L966.332 402.506H967.474V321.734H993.754V449Z" fill="white"/>
<path d="M879.309 385.367C879.309 398.844 876.731 410.533 871.575 420.436C866.477 430.279 859.417 437.809 850.393 443.023C841.428 448.18 831.262 450.758 819.895 450.758C808.528 450.758 798.333 448.18 789.309 443.023C780.344 437.809 773.284 430.25 768.128 420.348C763.03 410.445 760.481 398.785 760.481 385.367C760.481 371.773 763.03 360.055 768.128 350.211C773.284 340.367 780.344 332.867 789.309 327.711C798.333 322.555 808.528 319.977 819.895 319.977C831.262 319.977 841.428 322.555 850.393 327.711C859.417 332.867 866.477 340.367 871.575 350.211C876.731 360.055 879.309 371.773 879.309 385.367ZM852.591 385.367C852.591 376.402 851.243 368.785 848.548 362.516C845.911 356.246 842.132 351.5 837.21 348.277C832.346 344.996 826.575 343.355 819.895 343.355C813.274 343.355 807.503 344.996 802.581 348.277C797.718 351.5 793.938 356.246 791.243 362.516C788.548 368.785 787.2 376.402 787.2 385.367C787.2 394.332 788.548 401.949 791.243 408.219C793.938 414.488 797.718 419.264 802.581 422.545C807.503 425.768 813.274 427.379 819.895 427.379C826.575 427.379 832.346 425.768 837.21 422.545C842.132 419.264 845.911 414.488 848.548 408.219C851.243 401.949 852.591 394.332 852.591 385.367Z" fill="#F75820"/>
<rect x="803" y="121" width="27" height="177" fill="#2A27E8"/>
<rect x="1320" y="121" width="120" height="177" fill="#2A27E8"/>
<path d="M115.954 274.5L159.899 147.234H193.825L237.858 274.5H209.47L177.389 175.975H176.335L144.167 274.5H115.954ZM210.7 224.49V245.145H142.761V224.49H210.7ZM241.472 147.234H291.218C300.711 147.234 308.884 149.051 315.74 152.684C322.654 156.258 327.898 161.297 331.472 167.801C335.046 174.305 336.834 181.775 336.834 190.213C336.834 198.709 334.988 206.18 331.296 212.625C327.664 219.012 322.361 224.021 315.388 227.654C308.474 231.229 300.212 233.016 290.603 233.016H258.611V211.746H286.472C291.57 211.746 295.847 210.867 299.304 209.109C302.82 207.293 305.427 204.773 307.127 201.551C308.826 198.328 309.675 194.549 309.675 190.213C309.675 185.877 308.826 182.127 307.127 178.963C305.427 175.74 302.82 173.279 299.304 171.58C295.847 169.822 291.541 168.943 286.384 168.943H267.839V274.5H241.472V147.234ZM342.821 147.234H392.567C402.059 147.234 410.233 149.051 417.088 152.684C424.002 156.258 429.246 161.297 432.821 167.801C436.395 174.305 438.182 181.775 438.182 190.213C438.182 198.709 436.336 206.18 432.645 212.625C429.012 219.012 423.709 224.021 416.737 227.654C409.823 231.229 401.561 233.016 391.952 233.016H359.959V211.746H387.821C392.918 211.746 397.196 210.867 400.653 209.109C404.168 207.293 406.776 204.773 408.475 201.551C410.174 198.328 411.024 194.549 411.024 190.213C411.024 185.877 410.174 182.127 408.475 178.963C406.776 175.74 404.168 173.279 400.653 171.58C397.196 169.822 392.889 168.943 387.733 168.943H369.188V274.5H342.821V147.234ZM513.075 183.621C512.724 180.223 511.64 177.322 509.823 174.92C508.066 172.518 505.605 170.701 502.441 169.471C499.277 168.24 495.497 167.625 491.103 167.625C486.825 167.625 483.105 168.24 479.941 169.471C476.835 170.701 474.462 172.43 472.821 174.656C471.181 176.824 470.361 179.314 470.361 182.127C470.302 186.404 472.06 189.744 475.634 192.146C479.267 194.549 484.277 196.541 490.663 198.123L502.089 200.848C514.159 203.543 523.505 207.908 530.126 213.943C536.806 219.92 540.175 228.006 540.234 238.201C540.234 245.877 538.271 252.586 534.345 258.328C530.419 264.07 524.765 268.494 517.382 271.6C509.999 274.705 501.181 276.258 490.927 276.258C480.673 276.258 471.737 274.676 464.12 271.512C456.562 268.348 450.702 263.689 446.542 257.537C442.382 251.326 440.155 243.738 439.862 234.773H465.527C465.878 238.934 467.138 242.449 469.306 245.32C471.474 248.191 474.404 250.359 478.095 251.824C481.786 253.289 485.976 254.021 490.663 254.021C495.234 254.021 499.247 253.348 502.704 252C506.161 250.652 508.827 248.777 510.702 246.375C512.577 243.914 513.515 241.131 513.515 238.025C513.515 235.213 512.695 232.84 511.054 230.906C509.413 228.914 507.011 227.244 503.847 225.896C500.741 224.49 496.728 223.172 491.806 221.941L477.831 218.602C466.698 215.848 458.144 211.658 452.167 206.033C446.249 200.35 443.29 192.967 443.29 183.885C443.29 176.326 445.341 169.646 449.443 163.846C453.603 158.045 459.316 153.533 466.581 150.311C473.905 147.088 482.167 145.477 491.366 145.477C500.624 145.477 508.798 147.088 515.888 150.311C522.978 153.475 528.486 157.957 532.411 163.758C536.337 169.5 538.359 176.121 538.476 183.621H513.075Z" fill="white"/>
<line y1="471" x2="1440" y2="471" stroke="#E9ECEF" stroke-width="2" stroke-dasharray="2 2"/>
<line y1="297" x2="1440" y2="297" stroke="#E9ECEF" stroke-width="2" stroke-dasharray="2 2"/>
<path d="M1050.74 438.326C1048.24 438.326 1046.1 437.441 1044.32 435.671C1042.54 433.9 1041.66 431.761 1041.67 429.253C1041.68 426.745 1042.56 424.606 1044.32 422.836C1046.08 421.066 1048.22 420.181 1050.74 420.181C1051.35 420.181 1051.9 420.225 1052.37 420.313C1052.84 420.412 1053.34 420.584 1053.86 420.83L1086.58 388.116C1085.96 386.479 1085.83 384.802 1086.17 383.086C1086.51 381.37 1087.33 379.875 1088.6 378.601C1089.88 377.328 1091.38 376.516 1093.09 376.167C1094.81 375.823 1096.49 375.958 1098.12 376.573L1130.84 343.86L1130.39 342.37C1130.25 341.897 1130.18 341.354 1130.18 340.739C1130.18 338.241 1131.07 336.102 1132.85 334.322C1134.63 332.542 1136.77 331.657 1139.26 331.667C1141.75 331.677 1143.89 332.562 1145.68 334.322C1147.46 336.083 1148.35 338.222 1148.33 340.739C1148.32 343.257 1147.43 345.396 1145.68 347.157C1143.92 348.917 1141.78 349.802 1139.26 349.812C1137.74 349.812 1136.7 349.596 1136.14 349.163L1103.42 381.839C1104.04 383.472 1104.17 385.154 1103.83 386.885C1103.48 388.616 1102.69 390.106 1101.44 391.355C1100.11 392.682 1098.58 393.521 1096.87 393.87C1095.14 394.214 1093.47 394.067 1091.83 393.427L1059.93 425.285L1060.22 425.565H1086.72C1087.5 423.923 1088.62 422.612 1090.08 421.634C1091.53 420.66 1093.16 420.173 1094.96 420.173C1096.84 420.173 1098.54 420.655 1100.06 421.619C1101.57 422.578 1102.68 423.893 1103.37 425.565H1130.89C1131.67 423.893 1132.8 422.575 1134.27 421.612C1135.74 420.653 1137.41 420.173 1139.26 420.173C1141.76 420.173 1143.9 421.063 1145.68 422.843C1147.46 424.624 1148.34 426.76 1148.33 429.253C1148.32 431.746 1147.44 433.886 1145.68 435.671C1143.92 437.456 1141.78 438.341 1139.26 438.326C1137.41 438.326 1135.74 437.842 1134.27 436.873C1132.8 435.899 1131.67 434.589 1130.89 432.941H1103.37C1102.68 434.613 1101.57 435.931 1100.04 436.895C1098.5 437.854 1096.82 438.333 1095 438.333C1093.17 438.333 1091.53 437.847 1090.08 436.873C1088.62 435.899 1087.5 434.589 1086.72 432.941H1059.02C1058.33 434.589 1057.23 435.899 1055.7 436.873C1054.17 437.847 1052.52 438.333 1050.74 438.333M1050.74 394.076C1048.24 394.076 1046.1 393.186 1044.32 391.406C1042.54 389.626 1041.66 387.489 1041.67 384.996C1041.68 382.503 1042.56 380.364 1044.32 378.579C1046.08 376.794 1048.22 375.909 1050.74 375.924C1053.26 375.938 1055.4 376.824 1057.16 378.579C1058.92 380.335 1059.8 382.474 1059.81 384.996C1059.82 387.519 1058.94 389.658 1057.16 391.414C1055.38 393.169 1053.24 394.054 1050.74 394.069M1050.74 349.812C1048.24 349.812 1046.1 348.927 1044.32 347.157C1042.54 345.386 1041.66 343.247 1041.67 340.739C1041.68 338.232 1042.56 336.092 1044.32 334.322C1046.08 332.552 1048.22 331.667 1050.74 331.667C1053.26 331.667 1055.4 332.552 1057.16 334.322C1058.92 336.092 1059.8 338.232 1059.81 340.739C1059.82 343.247 1058.94 345.386 1057.16 347.157C1055.38 348.927 1053.24 349.812 1050.74 349.812ZM1095 349.812C1092.5 349.812 1090.36 348.927 1088.58 347.157C1086.8 345.386 1085.92 343.247 1085.93 340.739C1085.94 338.232 1086.82 336.092 1088.58 334.322C1090.34 332.552 1092.48 331.667 1095 331.667C1097.52 331.667 1099.66 332.552 1101.42 334.322C1103.18 336.092 1104.06 338.232 1104.07 340.739C1104.08 343.247 1103.2 345.386 1101.42 347.157C1099.64 348.927 1097.5 349.812 1095 349.812ZM1139.26 394.069C1136.76 394.069 1134.62 393.184 1132.84 391.414C1131.06 389.643 1130.18 387.504 1130.19 384.996C1130.2 382.488 1131.08 380.349 1132.84 378.579C1134.6 376.809 1136.74 375.924 1139.26 375.924C1141.78 375.924 1143.92 376.809 1145.68 378.579C1147.44 380.349 1148.32 382.488 1148.33 384.996C1148.34 387.504 1147.46 389.643 1145.68 391.414C1143.9 393.184 1141.76 394.069 1139.26 394.069Z" fill="white"/>
<path d="M1262.78 340.101V428.601C1262.78 438.454 1269.51 444 1276.89 444C1283.62 444 1291 439.339 1291 428.601V340.75C1291 331.664 1284.27 326 1276.89 326C1269.51 326 1262.78 332.254 1262.78 340.101ZM1225.89 385V428.601C1225.89 438.513 1232.74 444 1240 444C1246.73 444 1254.11 439.339 1254.11 428.601V385.649C1254.11 376.563 1247.38 370.899 1240 370.899C1232.62 370.899 1225.89 377.153 1225.89 385ZM1203.11 415.857C1210.9 415.857 1217.22 422.17 1217.22 429.899C1217.22 433.639 1215.73 437.226 1213.08 439.87C1210.44 442.515 1206.85 444 1203.11 444C1199.37 444 1195.78 442.515 1193.13 439.87C1190.49 437.226 1189 433.639 1189 429.899C1189 422.17 1195.32 415.857 1203.11 415.857Z" fill="white"/>
<path d="M942 653C946.221 653 949.654 656.363 949.771 660.556H949.777V663.224L951.664 661.337L951.669 661.342C954.717 658.46 959.522 658.509 962.507 661.494C965.492 664.479 965.541 669.284 962.659 672.332L962.663 672.336L962.534 672.465C962.525 672.474 962.515 672.485 962.506 672.494C962.497 672.503 962.487 672.512 962.478 672.521L960.777 674.222H963.444V674.228C967.637 674.345 971 677.778 971 681.999C971 686.22 967.637 689.654 963.444 689.771V689.777H960.777L962.663 691.663L962.658 691.668C965.539 694.716 965.488 699.521 962.504 702.506C959.519 705.49 954.715 705.54 951.667 702.659L951.663 702.663L951.534 702.534C951.525 702.525 951.514 702.515 951.505 702.506C951.496 702.497 951.487 702.487 951.478 702.478L949.777 700.777V703.444H949.771C949.654 707.637 946.221 711 942 711C937.779 711 934.345 707.637 934.228 703.444H934.222V700.776L932.544 702.454C932.527 702.471 932.511 702.49 932.494 702.507C932.477 702.524 932.459 702.541 932.441 702.558L932.336 702.662L932.333 702.659C929.285 705.541 924.479 705.492 921.494 702.507C918.509 699.522 918.46 694.716 921.342 691.668L921.337 691.664L923.224 689.777H920.555V689.771C916.362 689.653 913 686.22 913 681.999C913 677.778 916.363 674.346 920.555 674.228V674.222H923.222L921.521 672.521C921.512 672.512 921.502 672.503 921.492 672.493C921.483 672.484 921.474 672.474 921.465 672.465L921.336 672.336L921.34 672.333C918.458 669.285 918.508 664.48 921.492 661.495C924.477 658.51 929.283 658.46 932.331 661.342L932.336 661.337L934.222 663.222V660.556H934.228C934.345 656.363 937.779 653 942 653Z" fill="#F75820"/>
<rect x="989" y="657.116" width="221" height="50" rx="25" fill="#D9E3FC"/>
<path d="M1041.63 691.116L1036.78 674.147H1040.62L1043.48 686.007H1043.62L1046.74 674.147H1050.05L1053.16 686.03H1053.3L1056.16 674.147H1060.01L1055.15 691.116H1051.71L1048.48 679.913H1048.33L1045.08 691.116H1041.63ZM1061.21 691.116V674.147H1072.6V677.053H1064.73V681.178H1072.02V684.085H1064.73V688.21H1072.62V691.116H1061.21ZM1074.74 691.116V674.147H1081.49C1085.24 674.147 1087.12 675.952 1087.12 678.507C1087.12 680.499 1085.83 681.741 1084.07 682.139V682.303C1085.99 682.397 1087.8 683.921 1087.8 686.428C1087.8 689.124 1085.78 691.116 1081.94 691.116H1074.74ZM1081.24 688.21C1083.28 688.21 1084.14 687.366 1084.14 686.1C1084.14 684.671 1083.06 683.663 1081.33 683.663H1078.26V688.21H1081.24ZM1080.98 681.249C1082.45 681.249 1083.56 680.428 1083.56 679.069C1083.56 677.85 1082.67 677.007 1081.05 677.007H1078.26V681.249H1080.98Z" fill="#333333"/>
<path d="M1101.76 691.374C1098.24 691.374 1096.09 689.288 1096.09 686.616C1096.09 684.624 1097.34 683.44 1099.2 682.163C1098.29 681.026 1097.56 679.784 1097.56 678.272C1097.56 675.811 1099.39 673.913 1102.18 673.913C1104.9 673.913 1106.56 675.741 1106.56 677.897C1106.56 679.514 1105.74 680.78 1104.31 681.811L1103.33 682.538L1106.16 685.796C1106.6 684.964 1106.87 683.968 1106.87 682.866H1109.75C1109.75 685.175 1109.15 686.944 1108.23 688.186L1110.78 691.116H1107.15L1106.12 689.944C1104.86 690.94 1103.26 691.374 1101.76 691.374ZM1099.46 686.428C1099.46 687.647 1100.42 688.561 1101.92 688.561C1102.71 688.561 1103.5 688.315 1104.24 687.858L1100.98 684.225L1100.87 684.319C1099.91 685.022 1099.46 685.772 1099.46 686.428ZM1100.54 678.319C1100.54 679.034 1100.98 679.749 1101.64 680.546L1102.53 679.96C1103.38 679.421 1103.77 678.835 1103.77 678.085C1103.77 677.428 1103.21 676.725 1102.2 676.725C1101.22 676.725 1100.54 677.452 1100.54 678.319Z" fill="#333333"/>
<path d="M1121.3 691.116H1117.5L1123.39 674.147H1127.91L1133.77 691.116H1129.99L1128.73 687.202H1122.59L1121.3 691.116ZM1123.48 684.46H1127.84L1125.71 677.968H1125.59L1123.48 684.46ZM1135.09 691.116V674.147H1141.75C1145.61 674.147 1147.82 676.514 1147.82 679.866C1147.82 683.264 1145.57 685.585 1141.65 685.585H1138.61V691.116H1135.09ZM1138.61 682.749H1141.09C1143.18 682.749 1144.18 681.577 1144.18 679.866C1144.18 678.178 1143.18 677.03 1141.09 677.03H1138.61V682.749ZM1149.44 691.116V674.147H1156.1C1159.97 674.147 1162.17 676.514 1162.17 679.866C1162.17 683.264 1159.92 685.585 1156.01 685.585H1152.96V691.116H1149.44ZM1152.96 682.749H1155.44C1157.53 682.749 1158.54 681.577 1158.54 679.866C1158.54 678.178 1157.53 677.03 1155.44 677.03H1152.96V682.749Z" fill="#333333"/>
<path d="M138.555 58.8281C138.242 56.0547 135.703 54.4531 132.305 54.4531C128.555 54.4531 126.094 56.4062 126.094 59.1016C126.094 62.0703 129.414 63.1641 131.562 63.7109L134.375 64.4922C137.422 65.2734 142.383 67.0312 142.383 72.3047C142.383 76.9141 138.672 80.5078 132.109 80.5078C126.016 80.5078 122.227 77.3438 121.914 72.6562H125.508C125.82 75.8203 128.75 77.3047 132.109 77.3047C136.016 77.3047 138.945 75.3125 138.945 72.2266C138.945 69.4922 136.328 68.4375 133.359 67.5781L129.883 66.6406C125.43 65.3516 122.695 63.0859 122.695 59.2578C122.695 54.4922 126.953 51.3281 132.422 51.3281C137.891 51.3281 141.836 54.5312 141.992 58.8281H138.555ZM146.422 51.7188H150.641L160.172 75H160.523L170.055 51.7188H174.273V80H170.953V58.6328H170.68L161.891 80H158.766L149.977 58.6328H149.742V80H146.422V51.7188ZM184.758 80L177.023 51.7188H180.578L186.477 74.6094H186.75L192.727 51.7188H196.672L202.688 74.6094H202.922L208.82 51.7188H212.375L204.641 80H201.008L194.836 57.6172H194.602L188.391 80H184.758ZM233.641 51.7188H237.156V70.4297C237.156 76.25 232.82 80.5078 226.141 80.5078C219.461 80.5078 215.125 76.25 215.125 70.4297V51.7188H218.641V70.1562C218.641 74.2578 221.492 77.2266 226.141 77.2266C230.828 77.2266 233.641 74.2578 233.641 70.1562V51.7188ZM251.445 80V51.7188H261.055C267.695 51.7188 270.703 55.6641 270.703 60.7031C270.703 65.7031 267.695 69.7266 261.094 69.7266H254.961V80H251.445ZM254.961 66.6016H260.938C265.43 66.6016 267.227 64.0625 267.227 60.7031C267.227 57.3047 265.43 54.8438 260.898 54.8438H254.961V66.6016ZM274.195 80V58.7891H277.438V62.0312H277.672C278.453 59.8828 280.641 58.4375 283.141 58.4375C283.648 58.4375 284.508 58.4766 284.898 58.5156V61.9141C284.664 61.8359 283.727 61.6797 282.867 61.6797C279.82 61.6797 277.555 63.7891 277.555 66.6406V80H274.195ZM295.148 80.4297C289.367 80.4297 285.461 76.0938 285.461 69.4922C285.461 62.8906 289.367 58.5156 295.148 58.5156C300.891 58.5156 304.758 62.8906 304.758 69.4922C304.758 76.0938 300.891 80.4297 295.148 80.4297ZM295.148 77.4609C299.406 77.4609 301.398 73.7109 301.398 69.4922C301.398 65.2734 299.406 61.4844 295.148 61.4844C290.812 61.4844 288.82 65.2734 288.82 69.4922C288.82 73.7109 290.812 77.4609 295.148 77.4609ZM316.766 88.3984C311.648 88.3984 308.172 86.1719 307.781 82.2266H311.297C311.766 84.375 313.758 85.4688 316.766 85.4688C320.398 85.4688 322.625 83.9062 322.625 80.3906V76.0938H322.352C321.648 77.2656 320.281 79.6875 316.18 79.6875C311.023 79.6875 307.156 75.7812 307.156 69.1016C307.156 62.5781 310.906 58.5156 316.219 58.5156C320.32 58.5156 321.648 61.0156 322.43 62.1484H322.703V58.7891H325.984V80.5859C325.984 86.0547 321.922 88.3984 316.766 88.3984ZM316.648 76.6797C320.516 76.6797 322.703 73.9062 322.703 69.2188C322.703 64.6875 320.594 61.5234 316.648 61.5234C312.586 61.5234 310.555 64.9609 310.555 69.2188C310.555 73.6328 312.625 76.6797 316.648 76.6797ZM330.336 80V58.7891H333.578V62.0312H333.812C334.594 59.8828 336.781 58.4375 339.281 58.4375C339.789 58.4375 340.648 58.4766 341.039 58.5156V61.9141C340.805 61.8359 339.867 61.6797 339.008 61.6797C335.961 61.6797 333.695 63.7891 333.695 66.6406V80H330.336ZM342.266 73.9844C342.266 69.1016 346.562 68.0078 350.234 67.7344C351.582 67.6367 355.02 67.4609 355.977 67.4219V65.7031C355.977 63.0078 354.375 61.4453 351.172 61.4453C348.477 61.4453 346.875 62.6953 346.406 64.2969H342.891C343.32 60.8984 346.641 58.5156 351.328 58.5156C354.102 58.5156 359.297 59.3359 359.297 66.0156V80H355.977V77.1094H355.82C355.117 78.5547 353.164 80.5078 349.492 80.5078C345.469 80.5078 342.266 78.125 342.266 73.9844ZM345.625 74.1406C345.625 76.3672 347.5 77.5 350.078 77.5C353.867 77.5 355.977 74.9609 355.977 72.3047V70.1562L350.625 70.5469C347.578 70.7422 345.625 71.8359 345.625 74.1406ZM363.688 80V58.7891H366.93V62.1094H367.203C368.102 59.8438 370.133 58.5156 372.906 58.5156C375.68 58.5156 377.555 59.8438 378.57 62.1094H378.805C379.898 59.9219 382.125 58.5156 385.172 58.5156C388.961 58.5156 391.656 60.8203 391.656 65.8203V80H388.297V65.8594C388.297 62.7344 386.305 61.5234 384 61.5234C381.031 61.5234 379.352 63.5156 379.352 66.2109V80H375.953V65.5078C375.953 63.125 374.234 61.5234 371.812 61.5234C369.273 61.5234 367.047 63.6719 367.047 66.7578V80H363.688ZM396.047 80V58.7891H399.289V62.1094H399.562C400.461 59.8438 402.492 58.5156 405.266 58.5156C408.039 58.5156 409.914 59.8438 410.93 62.1094H411.164C412.258 59.9219 414.484 58.5156 417.531 58.5156C421.32 58.5156 424.016 60.8203 424.016 65.8203V80H420.656V65.8594C420.656 62.7344 418.664 61.5234 416.359 61.5234C413.391 61.5234 411.711 63.5156 411.711 66.2109V80H408.312V65.5078C408.312 63.125 406.594 61.5234 404.172 61.5234C401.633 61.5234 399.406 63.6719 399.406 66.7578V80H396.047ZM428.406 80V58.7891H431.766V80H428.406ZM430.086 55.2734C428.797 55.2734 427.742 54.2969 427.742 53.0469C427.742 51.7969 428.797 50.8203 430.086 50.8203C431.375 50.8203 432.469 51.7969 432.469 53.0469C432.469 54.2969 431.375 55.2734 430.086 55.2734ZM439.477 67.2656V80H436.117V58.7891H439.359V62.1094H439.633C440.648 59.9609 442.602 58.5156 445.844 58.5156C450.141 58.5156 452.992 61.1328 452.992 66.5234V80H449.633V66.7578C449.633 63.4766 447.836 61.5234 444.828 61.5234C441.742 61.5234 439.477 63.5938 439.477 67.2656ZM465.977 88.3984C460.859 88.3984 457.383 86.1719 456.992 82.2266H460.508C460.977 84.375 462.969 85.4688 465.977 85.4688C469.609 85.4688 471.836 83.9062 471.836 80.3906V76.0938H471.562C470.859 77.2656 469.492 79.6875 465.391 79.6875C460.234 79.6875 456.367 75.7812 456.367 69.1016C456.367 62.5781 460.117 58.5156 465.43 58.5156C469.531 58.5156 470.859 61.0156 471.641 62.1484H471.914V58.7891H475.195V80.5859C475.195 86.0547 471.133 88.3984 465.977 88.3984ZM465.859 76.6797C469.727 76.6797 471.914 73.9062 471.914 69.2188C471.914 64.6875 469.805 61.5234 465.859 61.5234C461.797 61.5234 459.766 64.9609 459.766 69.2188C459.766 73.6328 461.836 76.6797 465.859 76.6797ZM508.312 60.625C507.492 56.7188 504.133 54.6094 500.422 54.6094C495.305 54.6094 491.32 58.5547 491.32 65.8594C491.32 73.1641 495.305 77.1094 500.422 77.1094C504.133 77.1094 507.453 75 508.312 71.1328H511.828C510.812 76.9141 506.164 80.3906 500.422 80.3906C493.156 80.3906 487.922 74.8047 487.922 65.8594C487.922 56.9141 493.156 51.3281 500.422 51.3281C506.125 51.3281 510.773 54.7656 511.828 60.625H508.312ZM518.68 51.7188V80H515.32V51.7188H518.68ZM536.43 71.2891V58.7891H539.75V80H536.43V76.4062H536.195C535.18 78.5547 533.109 80.2734 529.906 80.2734C525.883 80.2734 523.031 77.6562 523.031 72.2656V58.7891H526.391V72.0312C526.391 75.0781 528.305 77.0312 531 77.0312C533.383 77.0312 536.43 75.2344 536.43 71.2891ZM544.57 80V51.7188H547.93V62.1484H548.203C548.945 61.0156 550.195 58.5156 554.336 58.5156C559.648 58.5156 563.398 62.7344 563.398 69.4531C563.398 76.1719 559.648 80.4297 554.375 80.4297C550.312 80.4297 548.945 77.9297 548.203 76.7578H547.812V80H544.57ZM547.852 69.375C547.852 74.1406 550 77.4219 553.867 77.4219C557.891 77.4219 560 73.9062 560 69.375C560 64.9609 557.969 61.5234 553.867 61.5234C549.961 61.5234 547.852 64.6875 547.852 69.375Z" fill="#CCD7F2"/>
</g>
<defs>
<clipPath id="clip0_921_706">
<rect width="1440" height="756" fill="white"/>
</clipPath>
<clipPath id="clip1_921_706">
<rect width="420" height="420" fill="white" transform="translate(46 262)"/>
</clipPath>
</defs>
</svg>
