<svg width="1440" height="243" viewBox="0 0 1440 243" fill="none" xmlns="http://www.w3.org/2000/svg">
<g clip-path="url(#clip0_166_3840)">
<rect width="1569.87" height="106" transform="translate(-69 136.823) rotate(-5)" fill="#2E61E0"/>
<path d="M-448.228 267.545C-469.358 269.393 -483.579 254.757 -485.999 227.089C-488.42 199.421 -476.957 182.538 -455.827 180.689C-434.697 178.84 -420.466 193.594 -418.056 221.145C-415.625 248.929 -427.098 265.696 -448.228 267.545ZM-449.495 253.069C-439.688 252.211 -434.211 242.203 -436.034 222.718C-437.719 203.455 -444.764 194.19 -454.571 195.048C-464.377 195.906 -469.706 206.254 -468.021 225.516C-466.432 245.022 -459.301 253.927 -449.495 253.069ZM-376.483 261.268C-397.614 263.117 -411.834 248.48 -414.255 220.812C-416.675 193.144 -405.212 176.261 -384.082 174.412C-362.952 172.564 -348.721 187.317 -346.311 214.868C-343.88 242.652 -355.353 259.419 -376.483 261.268ZM-377.75 246.792C-367.944 245.934 -362.467 235.926 -364.289 216.441C-365.974 197.178 -373.02 187.913 -382.826 188.771C-392.632 189.629 -397.962 199.977 -396.276 219.239C-394.687 238.745 -387.556 247.65 -377.75 246.792ZM-308.616 168.986L-301.222 253.507L-318.85 255.049L-324.784 187.222L-325.251 187.263L-343.568 201.1L-344.926 185.573L-325.194 170.436L-308.616 168.986ZM-255.875 250.716C-277.006 252.565 -291.226 237.928 -293.647 210.26C-296.067 182.593 -284.604 165.709 -263.474 163.86C-242.344 162.012 -228.113 176.765 -225.703 204.316C-223.272 232.101 -234.745 248.867 -255.875 250.716ZM-257.142 236.24C-247.336 235.382 -241.859 225.375 -243.681 205.889C-245.366 186.627 -252.412 177.362 -262.218 178.22C-272.024 179.077 -277.354 189.425 -275.668 208.687C-274.079 228.194 -266.948 237.098 -257.142 236.24ZM-188.008 158.434L-180.614 242.955L-198.242 244.497L-204.176 176.671L-204.643 176.711L-222.96 190.548L-224.318 175.021L-204.586 159.885L-188.008 158.434ZM-139.145 154.159L-131.75 238.68L-149.378 240.222L-155.312 172.396L-155.779 172.436L-174.096 186.273L-175.455 170.746L-155.722 155.61L-139.145 154.159ZM-86.4039 235.889C-107.534 237.738 -121.755 223.101 -124.175 195.434C-126.596 167.766 -115.133 150.882 -94.0028 149.033C-72.8726 147.185 -58.642 161.938 -56.2316 189.489C-53.8007 217.274 -65.2737 234.041 -86.4039 235.889ZM-87.6704 221.413C-77.8641 220.555 -72.3874 210.548 -74.2098 191.062C-75.895 171.8 -82.9402 162.535 -92.7465 163.393C-102.553 164.251 -107.882 174.598 -106.197 193.861C-104.608 213.367 -97.4767 222.271 -87.6704 221.413ZM-18.537 143.607L-11.1423 228.128L-28.7703 229.671L-34.7044 161.844L-35.1714 161.885L-53.4883 175.721L-54.8467 160.195L-35.1143 145.058L-18.537 143.607ZM34.2041 225.337C13.0739 227.186 -1.14649 212.549 -3.5671 184.882C-5.98772 157.214 5.47502 140.33 26.6052 138.482C47.7355 136.633 61.9661 151.386 64.3765 178.937C66.8073 206.722 55.3344 223.489 34.2041 225.337ZM32.9377 210.861C42.7439 210.003 48.2207 199.996 46.3983 180.51C44.713 161.248 37.6678 151.983 27.8615 152.841C18.0552 153.699 12.7259 164.046 14.4111 183.309C16 202.815 23.1314 211.719 32.9377 210.861ZM102.071 133.056L109.466 217.577L91.8377 219.119L85.9036 151.292L85.4367 151.333L67.1198 165.169L65.7614 149.643L85.4938 134.506L102.071 133.056ZM154.812 214.786C133.682 216.634 119.462 201.998 117.041 174.33C114.62 146.662 126.083 129.778 147.213 127.93C168.344 126.081 182.574 140.835 184.985 168.386C187.415 196.17 175.942 212.937 154.812 214.786ZM153.546 200.31C163.352 199.452 168.829 189.444 167.006 169.958C165.321 150.696 158.276 141.431 148.47 142.289C138.663 143.147 133.334 153.495 135.019 172.757C136.608 192.263 143.739 201.168 153.546 200.31ZM226.557 208.509C205.427 210.357 191.206 195.721 188.786 168.053C186.365 140.385 197.828 123.502 218.958 121.653C240.088 119.804 254.319 134.558 256.729 162.109C259.16 189.893 247.687 206.66 226.557 208.509ZM225.29 194.033C235.097 193.175 240.573 183.167 238.751 163.682C237.066 144.419 230.021 135.154 220.214 136.012C210.408 136.87 205.079 147.218 206.764 166.48C208.353 185.986 215.484 194.891 225.29 194.033ZM294.424 116.227L301.818 200.748L284.19 202.29L278.256 134.463L277.789 134.504L259.473 148.341L258.114 132.814L277.846 117.677L294.424 116.227ZM347.165 197.957C326.035 199.806 311.814 185.169 309.394 157.501C306.973 129.833 318.436 112.95 339.566 111.101C360.696 109.252 374.927 124.006 377.337 151.557C379.768 179.341 368.295 196.108 347.165 197.957ZM345.898 183.481C355.705 182.623 361.182 172.615 359.359 153.13C357.674 133.867 350.629 124.602 340.822 125.46C331.016 126.318 325.687 136.666 327.372 155.928C328.961 175.434 336.092 184.339 345.898 183.481ZM415.032 105.675L422.427 190.196L404.799 191.738L398.864 123.911L398.397 123.952L380.081 137.789L378.722 122.262L398.455 107.125L415.032 105.675ZM463.895 101.4L471.29 185.921L453.662 187.463L447.728 119.636L447.261 119.677L428.944 133.514L427.586 117.987L447.318 102.85L463.895 101.4ZM516.636 183.13C495.506 184.979 481.286 170.342 478.865 142.674C476.444 115.007 487.907 98.123 509.037 96.2743C530.168 94.4257 544.398 109.179 546.809 136.73C549.24 164.515 537.767 181.281 516.636 183.13ZM515.37 168.654C525.176 167.796 530.653 157.789 528.83 138.303C527.145 119.041 520.1 109.776 510.294 110.634C500.487 111.491 495.158 121.839 496.843 141.101C498.432 160.607 505.564 169.512 515.37 168.654ZM584.503 90.8483L591.898 175.369L574.27 176.911L568.336 109.085L567.869 109.125L549.552 122.962L548.194 107.435L567.926 92.2986L584.503 90.8483ZM637.244 172.578C616.114 174.427 601.894 159.79 599.473 132.122C597.053 104.455 608.515 87.5711 629.646 85.7225C650.776 83.8738 665.006 98.6272 667.417 126.178C669.848 153.963 658.375 170.73 637.244 172.578ZM635.978 158.102C645.784 157.244 651.261 147.237 649.439 127.751C647.753 108.489 640.708 99.2237 630.902 100.082C621.096 100.94 615.766 111.287 617.451 130.55C619.04 150.056 626.172 158.96 635.978 158.102ZM705.111 80.2964L712.506 164.817L694.878 166.36L688.944 98.5327L688.477 98.5736L670.16 112.41L668.802 96.8835L688.534 81.7468L705.111 80.2964ZM757.852 162.026C736.722 163.875 722.502 149.238 720.081 121.571C717.661 93.9029 729.123 77.0193 750.254 75.1706C771.384 73.322 785.614 88.0753 788.025 115.626C790.456 143.411 778.983 160.178 757.852 162.026ZM756.586 147.55C766.392 146.692 771.869 136.685 770.047 117.199C768.361 97.9369 761.316 88.6719 751.51 89.5299C741.704 90.3878 736.374 100.735 738.059 119.998C739.648 139.504 746.78 148.408 756.586 147.55ZM829.597 155.75C808.467 157.598 794.247 142.962 791.826 115.294C789.405 87.626 800.868 70.7424 821.998 68.8938C843.129 67.0451 857.359 81.7985 859.77 109.35C862.2 137.134 850.727 153.901 829.597 155.75ZM828.331 141.274C838.137 140.416 843.614 130.408 841.791 110.922C840.106 91.66 833.061 82.3951 823.255 83.253C813.448 84.1109 808.119 94.4585 809.804 113.721C811.393 133.227 818.524 142.131 828.331 141.274ZM897.464 63.4677L904.859 147.989L887.231 149.531L881.297 81.704L880.83 81.7449L862.513 95.5815L861.154 80.0548L880.887 64.9181L897.464 63.4677ZM950.205 145.198C929.075 147.046 914.855 132.41 912.434 104.742C910.013 77.0742 921.476 60.1906 942.606 58.342C963.737 56.4933 977.967 71.2467 980.378 98.7977C982.808 126.582 971.335 143.349 950.205 145.198ZM948.939 130.722C958.745 129.864 964.222 119.856 962.399 100.371C960.714 81.1082 953.669 71.8432 943.863 72.7012C934.056 73.5591 928.727 83.9067 930.412 103.169C932.001 122.675 939.132 131.58 948.939 130.722ZM1018.07 52.9159L1025.47 137.437L1007.84 138.979L1001.9 71.1522L1001.44 71.1931L983.121 85.0296L981.762 69.503L1001.49 54.3662L1018.07 52.9159ZM1066.94 48.6409L1074.33 133.162L1056.7 134.704L1050.77 66.8772L1050.3 66.9181L1031.98 80.7546L1030.63 65.228L1050.36 50.0912L1066.94 48.6409ZM1119.68 130.371C1098.55 132.22 1084.33 117.583 1081.91 89.9151C1079.48 62.2474 1090.95 45.3638 1112.08 43.5151C1133.21 41.6665 1147.44 56.4198 1149.85 83.9708C1152.28 111.755 1140.81 128.522 1119.68 130.371ZM1118.41 115.895C1128.22 115.037 1133.69 105.029 1131.87 85.5437C1130.19 66.2814 1123.14 57.0164 1113.33 57.8743C1103.53 58.7323 1098.2 69.0799 1099.88 88.3422C1101.47 107.848 1108.6 116.753 1118.41 115.895ZM1187.54 38.0891L1194.94 122.61L1177.31 124.152L1171.38 56.3254L1170.91 56.3662L1152.59 70.2028L1151.23 54.6762L1170.97 39.5394L1187.54 38.0891ZM1240.28 119.819C1219.15 121.668 1204.93 107.031 1202.51 79.3633C1200.09 51.6955 1211.56 34.8119 1232.69 32.9633C1253.82 31.1146 1268.05 45.868 1270.46 73.419C1272.89 101.203 1261.41 117.97 1240.28 119.819ZM1239.02 105.343C1248.82 104.485 1254.3 94.4775 1252.48 74.9919C1250.79 55.7295 1243.75 46.4646 1233.94 47.3225C1224.14 48.1804 1218.81 58.5281 1220.49 77.7904C1222.08 97.2965 1229.21 106.201 1239.02 105.343ZM1308.15 27.5372L1315.55 112.058L1297.92 113.6L1291.98 45.7735L1291.52 45.8144L1273.2 59.651L1271.84 44.1243L1291.57 28.9876L1308.15 27.5372ZM1360.89 109.267C1339.76 111.116 1325.54 96.4792 1323.12 68.8115C1320.7 41.1437 1332.16 24.2601 1353.29 22.4115C1374.42 20.5628 1388.65 35.3162 1391.07 62.8672C1393.5 90.6517 1382.02 107.419 1360.89 109.267ZM1359.63 94.7912C1369.43 93.9333 1374.91 83.9257 1373.09 64.4401C1371.4 45.1777 1364.36 35.9127 1354.55 36.7707C1344.74 37.6286 1339.41 47.9762 1341.1 67.2386C1342.69 86.7446 1349.82 95.6492 1359.63 94.7912ZM1432.64 102.99C1411.51 104.839 1397.29 90.2024 1394.87 62.5346C1392.45 34.8669 1403.91 17.9833 1425.04 16.1346C1446.17 14.2859 1460.4 29.0393 1462.81 56.5903C1465.24 84.3748 1453.77 101.142 1432.64 102.99ZM1431.37 88.5144C1441.18 87.6564 1446.65 77.6488 1444.83 58.1632C1443.15 38.9008 1436.1 29.6359 1426.29 30.4938C1416.49 31.3518 1411.16 41.6994 1412.84 60.9617C1414.43 80.4678 1421.56 89.3723 1431.37 88.5144ZM1500.5 10.7086L1507.9 95.2295L1490.27 96.7717L1484.34 28.9448L1483.87 28.9857L1465.55 42.8223L1464.19 27.2956L1483.93 12.1589L1500.5 10.7086ZM1553.25 92.4385C1532.12 94.2871 1517.89 79.6505 1515.47 51.9828C1513.05 24.315 1524.52 7.43142 1545.65 5.58277C1566.78 3.73411 1581.01 18.4875 1583.42 46.0385C1585.85 73.823 1574.38 90.5898 1553.25 92.4385ZM1551.98 77.9625C1561.79 77.1046 1567.26 67.097 1565.44 47.6114C1563.75 28.349 1556.71 19.084 1546.9 19.942C1537.1 20.7999 1531.77 31.1475 1533.45 50.4099C1535.04 69.9159 1542.17 78.8205 1551.98 77.9625ZM1621.11 0.15671L1628.51 84.6776L1610.88 86.2199L1604.95 18.393L1604.48 18.4339L1586.16 32.2704L1584.8 16.7438L1604.54 1.60704L1621.11 0.15671ZM1669.98 -4.11826L1677.37 80.4026L1659.74 81.9449L1653.81 14.118L1653.34 14.1589L1635.02 27.9955L1633.67 12.4688L1653.4 -2.66794L1669.98 -4.11826ZM1722.72 77.6117C1701.59 79.4603 1687.37 64.8237 1684.95 37.1559C1682.53 9.48819 1693.99 -7.39542 1715.12 -9.24407C1736.25 -11.0927 1750.48 3.66063 1752.89 31.2116C1755.32 58.9961 1743.85 75.763 1722.72 77.6117ZM1721.45 63.1357C1731.26 62.2778 1736.73 52.2702 1734.91 32.7845C1733.23 13.5222 1726.18 4.2572 1716.37 5.11514C1706.57 5.97308 1701.24 16.3207 1702.92 35.583C1704.51 55.0891 1711.64 63.9936 1721.45 63.1357ZM1790.58 -14.6701L1797.98 69.8508L1780.35 71.393L1774.42 3.56618L1773.95 3.60704L1755.63 17.4436L1754.27 1.91698L1774.01 -13.2198L1790.58 -14.6701ZM1843.32 67.0599C1822.19 68.9085 1807.97 54.2719 1805.55 26.6041C1803.13 -1.06362 1814.6 -17.9472 1835.73 -19.7959C1856.86 -21.6445 1871.09 -6.89117 1873.5 20.6598C1875.93 48.4443 1864.45 65.2112 1843.32 67.0599ZM1842.06 52.5839C1851.86 51.726 1857.34 41.7184 1855.52 22.2327C1853.83 2.97037 1846.79 -6.2946 1836.98 -5.43666C1827.18 -4.57872 1821.85 5.76889 1823.53 25.0312C1825.12 44.5373 1832.25 53.4418 1842.06 52.5839ZM1911.19 -25.222L1918.59 59.2989L1900.96 60.8412L1895.02 -6.98566L1894.56 -6.94481L1876.24 6.89177L1874.88 -8.63486L1894.61 -23.7716L1911.19 -25.222Z" fill="#3D6EEE"/>
</g>
<defs>
<clipPath id="clip0_166_3840">
<rect width="1569.87" height="106" fill="white" transform="translate(-69 136.823) rotate(-5)"/>
</clipPath>
</defs>
</svg>
