<svg width="1440" height="191" viewBox="0 0 1440 191" fill="none" xmlns="http://www.w3.org/2000/svg">
<g clip-path="url(#clip0_166_3842)">
<rect width="1612" height="106" transform="translate(-78.4521) rotate(3)" fill="#FFB236"/>
<path d="M-463.895 24.9467C-464.809 15.511 -471.764 9.39641 -481.594 8.88122C-494.819 8.18818 -504.012 17.9157 -504.944 35.7038C-505.901 53.96 -497.633 64.1332 -484.643 64.8139C-474.93 65.323 -467.509 60.3139 -465.275 51.2778L-447.493 52.327C-450.305 67.9044 -464.16 81.4948 -485.693 80.3663C-508.396 79.1764 -524.297 62.3837 -522.849 34.7654C-521.402 7.14704 -503.482 -7.87318 -481.13 -6.70175C-461.586 -5.67752 -447.43 6.32983 -446.107 25.879L-463.895 24.9467ZM-364.095 43.0853C-365.543 70.7037 -383.58 85.7178 -405.932 84.5463C-428.518 83.3627 -444.764 66.4345 -443.323 38.9332C-441.875 11.3149 -423.955 -3.70535 -401.369 -2.52166C-379.017 -1.35024 -362.648 15.467 -364.095 43.0853ZM-382.001 42.147C-381.05 24.0078 -389.078 13.7298 -402.185 13.0429C-415.292 12.356 -424.467 21.7324 -425.418 39.8716C-426.368 58.0108 -418.223 68.2949 -405.116 68.9818C-392.009 69.6687 -382.951 60.2861 -382.001 42.147ZM-356.426 1.00716L-334.659 2.14792L-314.148 60.8409L-313.212 60.8899L-286.678 4.6625L-264.911 5.80326L-269.352 90.5307L-286.438 89.6353L-283.531 34.1645L-284.233 34.1277L-309.24 88.0883L-320.942 87.4749L-340.159 30.9621L-340.862 30.9253L-343.781 86.6301L-360.867 85.7346L-356.426 1.00716ZM-262.265 90.9022L-257.824 6.17468L-224.589 7.91649C-205.279 8.92845 -194.898 21.3247 -195.775 38.0595C-196.664 55.0284 -208.506 66.0253 -228.05 65.0011L-243.263 64.2038L-244.711 91.8221L-262.265 90.9022ZM-242.521 50.0435L-230.116 50.6936C-219.701 51.2395 -214.362 45.6519 -213.914 37.1089C-213.473 28.683 -218.204 22.6849 -228.62 22.1391L-241.025 21.489L-242.521 50.0435ZM-172.797 10.6308L-177.238 95.3582L-194.792 94.4383L-190.351 9.71079L-172.797 10.6308ZM-170.15 95.7297L-165.71 11.0022L-148.156 11.9221L-151.836 82.1383L-115.324 84.0518L-116.084 98.5632L-170.15 95.7297ZM-111.923 98.7812L-107.482 14.0538L-50.6071 17.0345L-51.3676 31.5458L-90.6887 29.4851L-91.7681 50.0818L-55.3727 51.9892L-56.1333 66.5005L-92.5286 64.5931L-93.608 85.1899L-54.17 87.2567L-54.9305 101.768L-111.923 98.7812ZM31.4186 50.905C30.5049 41.4693 23.5498 35.3547 13.7195 34.8395C0.495455 34.1465 -8.69812 43.874 -9.63035 61.6621C-10.5871 79.9183 -2.31915 90.0915 10.6708 90.7723C20.3841 91.2813 27.8048 86.2722 30.0386 77.2361L47.8206 78.2853C45.0093 93.8627 31.154 107.453 9.62108 106.325C-13.0821 105.135 -28.9829 88.342 -27.5355 60.7237C-26.088 33.1054 -8.16802 18.0851 14.1841 19.2566C33.7276 20.2808 47.8842 32.2881 49.2067 51.8373L31.4186 50.905ZM131.219 69.0436C129.771 96.662 111.734 111.676 89.3819 110.505C66.7958 109.321 50.5501 92.3928 51.9913 64.8915C53.4388 37.2732 71.3588 22.253 93.945 23.4366C116.297 24.6081 132.666 41.4253 131.219 69.0436ZM113.313 68.1053C114.264 49.9661 106.236 39.6881 93.1293 39.0012C80.0223 38.3143 70.8471 47.6907 69.8965 65.8299C68.9458 83.9691 77.0906 94.2532 90.1977 94.9401C103.305 95.627 112.363 86.2444 113.313 68.1053ZM138.888 26.9655L160.655 28.1062L181.166 86.7992L182.102 86.8483L208.636 30.6208L230.403 31.7616L225.962 116.489L208.876 115.594L211.783 60.1229L211.081 60.0861L186.074 114.047L174.372 113.433L155.155 56.9204L154.452 56.8836L151.533 112.588L134.447 111.693L138.888 26.9655ZM233.049 116.86L237.49 32.133L270.725 33.8748C290.035 34.8868 300.416 47.283 299.539 64.0178C298.649 80.9867 286.808 91.9836 267.264 90.9594L252.051 90.1621L250.603 117.78L233.049 116.86ZM252.793 76.0018L265.198 76.6519C275.613 77.1978 280.952 71.6102 281.4 63.0672C281.841 54.6413 277.11 48.6432 266.694 48.0974L254.289 47.4473L252.793 76.0018ZM300.522 120.397L304.963 35.6691L322.517 36.5891L318.837 106.805L355.349 108.719L354.589 123.23L300.522 120.397ZM358.75 123.448L363.191 38.7207L420.066 41.7014L419.305 56.2127L379.984 54.152L378.905 74.7487L415.3 76.6561L414.54 91.1675L378.144 89.2601L377.065 109.857L416.503 111.924L415.742 126.435L358.75 123.448ZM422.53 56.3818L423.291 41.8704L492.688 45.5074L491.927 60.0187L465.947 58.6571L462.268 128.873L444.831 127.959L448.51 57.7433L422.53 56.3818ZM491.941 130.428L496.381 45.7009L553.256 48.6816L552.496 63.193L513.175 61.1322L512.095 81.729L548.491 83.6364L547.73 98.1477L511.335 96.2403L510.255 116.837L549.693 118.904L548.933 133.415L491.941 130.428Z" fill="white"/>
<path d="M639.173 70.0028C640.383 64.4754 648.4 64.8956 649.026 70.5192L650.963 87.9145L668.061 91.6591C673.588 92.8697 673.168 100.886 667.544 101.513L650.149 103.45L646.404 120.547C645.194 126.074 637.177 125.654 636.551 120.031L634.614 102.635L617.516 98.8908C611.989 97.6802 612.409 89.6635 618.033 89.0373L635.428 87.1004L639.173 70.0028Z" fill="white"/>
<path d="M792.381 90.7856C791.467 81.3498 784.512 75.2353 774.682 74.7201C761.458 74.027 752.264 83.7545 751.332 101.543C750.375 119.799 758.643 129.972 771.633 130.653C781.346 131.162 788.767 126.153 791.001 117.117L808.783 118.166C805.972 133.743 792.116 147.334 770.583 146.205C747.88 145.015 731.979 128.223 733.427 100.604C734.874 72.9859 752.794 57.9657 775.146 59.1371C794.69 60.1613 808.847 72.1687 810.169 91.7178L792.381 90.7856ZM892.181 108.924C890.734 136.543 872.696 151.557 850.344 150.385C827.758 149.202 811.512 132.273 812.954 104.772C814.401 77.1537 832.321 62.1335 854.907 63.3172C877.259 64.4886 893.628 81.3059 892.181 108.924ZM874.276 107.986C875.226 89.8467 867.199 79.5687 854.092 78.8818C840.985 78.1949 831.809 87.5713 830.859 105.71C829.908 123.85 838.053 134.134 851.16 134.821C864.267 135.508 873.325 126.125 874.276 107.986ZM899.85 66.846L921.617 67.9868L942.128 126.68L943.064 126.729L969.598 70.5014L991.365 71.6421L986.925 156.37L969.839 155.474L972.746 100.003L972.044 99.9666L947.037 153.927L935.334 153.314L916.117 96.8009L915.415 96.7641L912.495 152.469L895.41 151.573L899.85 66.846ZM994.012 156.741L998.452 72.0135L1031.69 73.7554C1051 74.7673 1061.38 87.1635 1060.5 103.898C1059.61 120.867 1047.77 131.864 1028.23 130.84L1013.01 130.043L1011.57 157.661L994.012 156.741ZM1013.76 115.882L1026.16 116.532C1036.58 117.078 1041.91 111.491 1042.36 102.948C1042.8 94.5218 1038.07 88.5238 1027.66 87.9779L1015.25 87.3278L1013.76 115.882ZM1083.48 76.4696L1079.04 161.197L1061.48 160.277L1065.93 75.5497L1083.48 76.4696ZM1086.13 161.569L1090.57 76.841L1108.12 77.761L1104.44 147.977L1140.95 149.891L1140.19 164.402L1086.13 161.569ZM1144.35 164.62L1148.79 79.8926L1205.67 82.8733L1204.91 97.3847L1165.59 95.3239L1164.51 115.921L1200.9 117.828L1200.14 132.339L1163.75 130.432L1162.67 151.029L1202.11 153.096L1201.35 167.607L1144.35 164.62ZM1287.69 116.744C1286.78 107.308 1279.83 101.194 1270 100.678C1256.77 99.9854 1247.58 109.713 1246.65 127.501C1245.69 145.757 1253.96 155.93 1266.95 156.611C1276.66 157.12 1284.08 152.111 1286.31 143.075L1304.1 144.124C1301.29 159.702 1287.43 173.292 1265.9 172.163C1243.19 170.974 1227.29 154.181 1228.74 126.563C1230.19 98.9442 1248.11 83.924 1270.46 85.0954C1290 86.1197 1304.16 98.127 1305.48 117.676L1287.69 116.744ZM1387.49 134.883C1386.05 162.501 1368.01 177.515 1345.66 176.344C1323.07 175.16 1306.83 158.232 1308.27 130.73C1309.72 103.112 1327.64 88.0918 1350.22 89.2755C1372.57 90.4469 1388.94 107.264 1387.49 134.883ZM1369.59 133.944C1370.54 115.805 1362.51 105.527 1349.41 104.84C1336.3 104.153 1327.12 113.53 1326.17 131.669C1325.22 149.808 1333.37 160.092 1346.47 160.779C1359.58 161.466 1368.64 152.083 1369.59 133.944ZM1395.16 92.8043L1416.93 93.9451L1437.44 152.638L1438.38 152.687L1464.91 96.4597L1486.68 97.6004L1482.24 182.328L1465.15 181.432L1468.06 125.962L1467.36 125.925L1442.35 179.885L1430.65 179.272L1411.43 122.759L1410.73 122.722L1407.81 178.427L1390.72 177.532L1395.16 92.8043ZM1489.33 182.699L1493.77 97.9719L1527 99.7137C1546.31 100.726 1556.69 113.122 1555.82 129.857C1554.93 146.826 1543.08 157.822 1523.54 156.798L1508.33 156.001L1506.88 183.619L1489.33 182.699ZM1509.07 141.841L1521.47 142.491C1531.89 143.037 1537.23 137.449 1537.68 128.906C1538.12 120.48 1533.39 114.482 1522.97 113.936L1510.57 113.286L1509.07 141.841ZM1556.8 186.235L1561.24 101.508L1578.79 102.428L1575.11 172.644L1611.63 174.558L1610.87 189.069L1556.8 186.235ZM1615.03 189.287L1619.47 104.56L1676.34 107.54L1675.58 122.052L1636.26 119.991L1635.18 140.588L1671.58 142.495L1670.82 157.006L1634.42 155.099L1633.34 175.696L1672.78 177.763L1672.02 192.274L1615.03 189.287ZM1678.81 122.221L1679.57 107.709L1748.96 111.346L1748.2 125.858L1722.22 124.496L1718.54 194.712L1701.11 193.798L1704.79 123.582L1678.81 122.221ZM1748.22 196.267L1752.66 111.54L1809.53 114.52L1808.77 129.032L1769.45 126.971L1768.37 147.568L1804.77 149.475L1804.01 163.987L1767.61 162.079L1766.53 182.676L1805.97 184.743L1805.21 199.254L1748.22 196.267Z" fill="white"/>
</g>
<defs>
<clipPath id="clip0_166_3842">
<rect width="1612" height="106" fill="white" transform="translate(-78.4521) rotate(3)"/>
</clipPath>
</defs>
</svg>
