<svg width="40" height="40" viewBox="0 0 40 40" fill="none" xmlns="http://www.w3.org/2000/svg">
<path d="M28.334 36.6667C26.9451 36.6667 25.7645 36.1806 24.7923 35.2084C23.8201 34.2362 23.334 33.0556 23.334 31.6667C23.334 31.5 23.3757 31.1112 23.459 30.5L11.7507 23.6667C11.3062 24.0834 10.7923 24.41 10.209 24.6467C9.62565 24.8834 9.00065 25.0012 8.33398 25C6.9451 25 5.76454 24.5139 4.79232 23.5417C3.8201 22.5695 3.33398 21.3889 3.33398 20C3.33398 18.6112 3.8201 17.4306 4.79232 16.4584C5.76454 15.4862 6.9451 15 8.33398 15C9.00065 15 9.62565 15.1184 10.209 15.355C10.7923 15.5917 11.3062 15.9178 11.7507 16.3334L23.459 9.50004C23.4034 9.3056 23.369 9.11837 23.3556 8.93837C23.3423 8.75837 23.3351 8.55671 23.334 8.33337C23.334 6.94449 23.8201 5.76393 24.7923 4.79171C25.7645 3.81949 26.9451 3.33337 28.334 3.33337C29.7229 3.33337 30.9034 3.81949 31.8757 4.79171C32.8479 5.76393 33.334 6.94449 33.334 8.33337C33.334 9.72226 32.8479 10.9028 31.8757 11.875C30.9034 12.8473 29.7229 13.3334 28.334 13.3334C27.6673 13.3334 27.0423 13.215 26.459 12.9784C25.8757 12.7417 25.3618 12.4156 24.9173 12L13.209 18.8334C13.2645 19.0278 13.2995 19.2156 13.314 19.3967C13.3284 19.5778 13.3351 19.7789 13.334 20C13.3329 20.2212 13.3262 20.4228 13.314 20.605C13.3018 20.7873 13.2668 20.9745 13.209 21.1667L24.9173 28C25.3618 27.5834 25.8757 27.2573 26.459 27.0217C27.0423 26.7861 27.6673 26.6678 28.334 26.6667C29.7229 26.6667 30.9034 27.1528 31.8757 28.125C32.8479 29.0973 33.334 30.2778 33.334 31.6667C33.334 33.0556 32.8479 34.2362 31.8757 35.2084C30.9034 36.1806 29.7229 36.6667 28.334 36.6667ZM28.334 33.3334C28.8062 33.3334 29.2023 33.1739 29.5223 32.855C29.8423 32.5361 30.0018 32.14 30.0007 31.6667C29.9995 31.1934 29.8395 30.7978 29.5207 30.48C29.2018 30.1623 28.8062 30.0023 28.334 30C27.8618 29.9978 27.4662 30.1578 27.1473 30.48C26.8284 30.8023 26.6684 31.1978 26.6673 31.6667C26.6662 32.1356 26.8262 32.5317 27.1473 32.855C27.4684 33.1784 27.864 33.3378 28.334 33.3334ZM8.33398 21.6667C8.80621 21.6667 9.20232 21.5067 9.52232 21.1867C9.84232 20.8667 10.0018 20.4712 10.0007 20C9.99954 19.5289 9.83954 19.1334 9.52065 18.8134C9.20176 18.4934 8.80621 18.3334 8.33398 18.3334C7.86176 18.3334 7.46621 18.4934 7.14732 18.8134C6.82843 19.1334 6.66843 19.5289 6.66732 20C6.66621 20.4712 6.82621 20.8673 7.14732 21.1884C7.46843 21.5095 7.86398 21.6689 8.33398 21.6667ZM28.334 10C28.8062 10 29.2023 9.84004 29.5223 9.52004C29.8423 9.20004 30.0018 8.80448 30.0007 8.33337C29.9995 7.86226 29.8395 7.46671 29.5207 7.14671C29.2018 6.82671 28.8062 6.66671 28.334 6.66671C27.8618 6.66671 27.4662 6.82671 27.1473 7.14671C26.8284 7.46671 26.6684 7.86226 26.6673 8.33337C26.6662 8.80448 26.8262 9.2006 27.1473 9.52171C27.4684 9.84282 27.864 10.0023 28.334 10Z" fill="white"/>
</svg>
