<svg width="120" height="120" viewBox="0 0 120 120" fill="none" xmlns="http://www.w3.org/2000/svg">
<g clip-path="url(#clip0_354_7594)">
<path d="M34.2324 12C37.4689 12.0001 40.1022 14.579 40.1914 17.7939H40.1953V19.834L41.6387 18.3906L41.6426 18.3945C43.979 16.1852 47.6628 16.2237 49.9512 18.5117C52.2395 20.8001 52.2788 24.4848 50.0693 26.8213L50.0703 26.8232L50.0049 26.8887C49.9872 26.9068 49.9701 26.9254 49.9521 26.9434C49.934 26.9615 49.9148 26.9792 49.8965 26.9971L48.626 28.2676H50.6699V28.2715C53.8847 28.3611 56.4629 30.9941 56.4629 34.2305C56.4627 37.4667 53.8846 40.0999 50.6699 40.1895V40.1934H48.6279L50.0732 41.6387L50.0674 41.6436C52.2756 43.98 52.2369 47.6632 49.9492 49.9512C47.6208 52.2795 43.8461 52.2803 41.5176 49.9521C41.4813 49.9159 41.4463 49.8778 41.4111 49.8408L40.1953 48.625V50.6729H40.1914C40.1003 53.8862 37.4678 56.4628 34.2324 56.4629C30.9972 56.4627 28.3655 53.8861 28.2744 50.6729H28.2705V48.623L26.9961 49.8975C26.9785 49.9155 26.9613 49.9342 26.9434 49.9521C26.9253 49.9702 26.906 49.9881 26.8877 50.0059L26.8213 50.0723L26.8203 50.0703C24.4837 52.2792 20.7989 52.2403 18.5107 49.9521C16.2229 47.664 16.1848 43.98 18.3936 41.6436L18.3896 41.6396L19.8359 40.1934H17.791V40.1895C14.5775 40.0987 12.0002 37.4659 12 34.2305C12.0001 30.9949 14.5774 28.3632 17.791 28.2725V28.2676H19.8379L18.6201 27.0498C18.5832 27.0147 18.545 26.9796 18.5088 26.9434C16.1804 24.6149 16.1803 20.8392 18.5088 18.5107C20.7974 16.2225 24.482 16.1846 26.8184 18.3945L26.8242 18.3896L28.2705 19.8359V17.7939H28.2744C28.3637 14.579 30.9959 12.0001 34.2324 12Z" fill="#F46A54"/>
</g>
<g clip-path="url(#clip1_354_7594)">
<path d="M12 66.0631C12 64.7376 13.0745 63.6631 14.4 63.6631H34.2316C46.5097 63.6631 56.4632 73.6165 56.4632 85.8947C56.4632 98.1728 46.5097 108.126 34.2316 108.126H14.4C13.0745 108.126 12 107.052 12 105.726V66.0631Z" fill="#A96EFC"/>
</g>
<g clip-path="url(#clip2_354_7594)">
<path d="M63.6641 14.4C63.6641 13.0745 64.7386 12 66.0641 12H85.8956C98.1738 12 108.127 21.9534 108.127 34.2316C108.127 46.5097 98.1738 56.4632 85.8956 56.4632H66.0641C64.7386 56.4632 63.6641 55.3886 63.6641 54.0632V14.4Z" fill="#A96EFC"/>
</g>
<g clip-path="url(#clip3_354_7594)">
<path d="M100.548 85.8965C103.199 85.8965 105.349 88.0453 105.349 90.6963V103.327C105.349 105.978 103.199 108.128 100.548 108.128H68.4639C65.813 108.128 63.6641 105.978 63.6641 103.327V90.6963C63.6641 88.0454 65.813 85.8966 68.4639 85.8965H100.548ZM103.327 63.6631C105.978 63.6631 108.128 65.812 108.128 68.4629V81.0947C108.128 83.7457 105.978 85.8945 103.327 85.8945H71.2432C68.5923 85.8944 66.4434 83.7456 66.4434 81.0947V68.4629C66.4435 65.8121 68.5924 63.6632 71.2432 63.6631H103.327Z" fill="#4B48F5"/>
</g>
<defs>
<clipPath id="clip0_354_7594">
<rect width="44.4632" height="44.4632" fill="white" transform="translate(12 12)"/>
</clipPath>
<clipPath id="clip1_354_7594">
<rect width="44.4632" height="44.4632" fill="white" transform="translate(12 63.6631)"/>
</clipPath>
<clipPath id="clip2_354_7594">
<rect width="44.4632" height="44.4632" fill="white" transform="translate(63.6641 12)"/>
</clipPath>
<clipPath id="clip3_354_7594">
<rect width="44.4632" height="44.4632" fill="white" transform="translate(63.6641 63.6631)"/>
</clipPath>
</defs>
</svg>
