<svg width="30" height="30" viewBox="0 0 30 30" fill="none" xmlns="http://www.w3.org/2000/svg">
<rect width="30" height="30" rx="5" fill="#111111"/>
<g clip-path="url(#clip0_166_4191)">
<path d="M9.63184 5C10.3061 5 10.8534 5.53727 10.8721 6.20703H10.874V6.63184L11.1748 6.33105L11.1768 6.33301C11.6635 5.87261 12.4304 5.87978 12.9072 6.35645C13.3838 6.83325 13.391 7.60021 12.9307 8.08691L12.9316 8.08789L12.6299 8.38965H13.0566V8.3916C13.7262 8.4105 14.2627 8.95774 14.2627 9.63184C14.2624 10.3057 13.726 10.8532 13.0566 10.8721V10.874H12.6309L12.9316 11.1748L12.9297 11.1768C13.3898 11.6635 13.3829 12.4306 12.9062 12.9072C12.4296 13.3837 11.6625 13.3907 11.1758 12.9307H11.1748L11.1631 12.9189C11.1589 12.9149 11.1536 12.9113 11.1494 12.9072C11.1451 12.9029 11.1409 12.8979 11.1367 12.8936L10.874 12.6299V13.0566H10.8721C10.8532 13.7262 10.3059 14.2627 9.63184 14.2627C8.95773 14.2627 8.41049 13.7262 8.3916 13.0566H8.38965V12.6299L8.08789 12.9316L8.08691 12.9307C7.60018 13.3906 6.83308 13.3837 6.35645 12.9072C5.88007 12.4306 5.87313 11.6635 6.33301 11.1768L6.33203 11.1748L6.63281 10.874H6.20703V10.8721C5.53742 10.8534 5.00025 10.3059 5 9.63184C5 8.95757 5.53727 8.41024 6.20703 8.3916V8.38965H6.63379L6.36914 8.125C6.36494 8.12092 6.35962 8.11743 6.35547 8.11328C6.35124 8.10902 6.3479 8.10392 6.34375 8.09961L6.33203 8.08789V8.08691C5.87189 7.60019 5.87895 6.83316 6.35547 6.35645C6.83217 5.87974 7.59915 5.87282 8.08594 6.33301L8.08887 6.33105L8.38965 6.63184V6.20703H8.3916C8.41023 5.53727 8.95757 5 9.63184 5Z" fill="#F75D45"/>
</g>
<g clip-path="url(#clip1_166_4191)">
<path d="M5 16.2632C5 15.987 5.22386 15.7632 5.5 15.7632H9.63158C12.1895 15.7632 14.2632 17.8368 14.2632 20.3948C14.2632 22.9527 12.1895 25.0263 9.63158 25.0263H5.5C5.22386 25.0263 5 24.8025 5 24.5263V16.2632Z" fill="#35ADE9"/>
</g>
<g clip-path="url(#clip2_166_4191)">
<path d="M15.7637 5.5C15.7637 5.22386 15.9875 5 16.2637 5H20.3952C22.9532 5 25.0268 7.07363 25.0268 9.63158C25.0268 12.1895 22.9532 14.2632 20.3953 14.2632H16.2637C15.9875 14.2632 15.7637 14.0393 15.7637 13.7632V5.5Z" fill="#35ADE9"/>
</g>
<g clip-path="url(#clip3_166_4191)">
<rect x="16.3418" y="15.7632" width="8.68421" height="4.63158" rx="1" fill="#FFB236"/>
<rect x="15.7637" y="20.3948" width="8.68421" height="4.63158" rx="1" fill="#FFB236"/>
</g>
<defs>
<clipPath id="clip0_166_4191">
<rect width="9.26316" height="9.26316" fill="white" transform="translate(5 5)"/>
</clipPath>
<clipPath id="clip1_166_4191">
<rect width="9.26316" height="9.26316" fill="white" transform="translate(5 15.7632)"/>
</clipPath>
<clipPath id="clip2_166_4191">
<rect width="9.26316" height="9.26316" fill="white" transform="translate(15.7637 5)"/>
</clipPath>
<clipPath id="clip3_166_4191">
<rect width="9.26316" height="9.26316" fill="white" transform="translate(15.7637 15.7632)"/>
</clipPath>
</defs>
</svg>
