<svg xmlns="http://www.w3.org/2000/svg" width="108" height="24" fill="none" viewBox="0 0 108 24"><rect width="108" height="24" fill="#4b48f5" rx="12"/><path fill="#d9e3fc" d="M20.28 17V7.102h3.937c2.188 0 3.281 1.052 3.281 2.543 0 1.162-.751 1.886-1.777 2.119v.095c1.121.055 2.174.944 2.174 2.407 0 1.572-1.176 2.734-3.418 2.734zm3.787-1.695c1.19 0 1.695-.492 1.695-1.23 0-.835-.629-1.423-1.64-1.423H22.33v2.653zm-.15-4.06c.86 0 1.503-.48 1.503-1.272 0-.711-.52-1.203-1.463-1.203h-1.626v2.474zM30.497 17h-2.215l3.432-9.898h2.638L37.772 17H35.57l-.738-2.283H31.25zm1.271-3.883h2.544L33.068 9.33H33zm12.926-2.57c-.164-1.094-1.012-1.764-2.16-1.764-1.545 0-2.557 1.19-2.557 3.268 0 2.133 1.026 3.267 2.543 3.267 1.135 0 1.969-.628 2.174-1.695l2.078.014c-.232 1.832-1.764 3.5-4.28 3.5-2.652 0-4.607-1.86-4.607-5.086s1.996-5.086 4.608-5.086c2.283 0 4.006 1.312 4.279 3.582zM47.859 17V7.102h2.05v4.388h.137l3.596-4.388h2.474l-3.691 4.43L56.157 17h-2.46l-2.749-4.088-1.039 1.258V17zm12.87-5.756v1.613h-4.511v-1.613zM62.102 17V7.102h6.645v1.695h-4.594v2.406h4.252v1.695h-4.252v2.407h4.607V17zm16.152-9.898V17h-1.777l-4.348-6.29h-.082V17h-2.05V7.102H71.8l4.32 6.289h.096V7.1zM83.058 17h-3.486V7.102h3.527c2.98 0 4.799 1.859 4.799 4.935 0 3.104-1.818 4.963-4.84 4.963m-1.435-1.764h1.353c1.887 0 2.871-.984 2.871-3.199 0-2.201-.984-3.172-2.857-3.172h-1.367z"/></svg>