<svg xmlns="http://www.w3.org/2000/svg" width="104" height="24" fill="none" viewBox="0 0 104 24"><rect width="104" height="24" fill="#4b48f5" rx="12"/><path fill="#d9e3fc" d="M23.612 17h-3.487V7.102h3.528c2.98 0 4.799 1.859 4.799 4.935 0 3.104-1.819 4.963-4.84 4.963m-1.436-1.764h1.354c1.886 0 2.87-.984 2.87-3.199 0-2.201-.984-3.172-2.857-3.172h-1.367zM29.592 17V7.102h6.644v1.695h-4.593v2.406h4.252v1.695h-4.252v2.407h4.607V17zm13.267-7.068c-.082-.78-.711-1.245-1.709-1.245-1.04 0-1.613.479-1.627 1.135-.014.711.738 1.04 1.586 1.23l.889.22c1.695.382 2.967 1.244 2.967 2.898 0 1.818-1.422 2.967-3.829 2.967-2.392 0-3.924-1.108-3.978-3.227h1.996c.068.998.861 1.504 1.955 1.504 1.08 0 1.777-.506 1.777-1.244 0-.67-.615-.985-1.695-1.258l-1.08-.26c-1.668-.41-2.693-1.244-2.693-2.693 0-1.805 1.586-2.994 3.746-2.994 2.187 0 3.636 1.217 3.664 2.967zm5.146-2.83V17h-2.05V7.102zm7.894 3.185c-.273-.93-1.025-1.504-2.105-1.504-1.531 0-2.57 1.176-2.57 3.254 0 2.092 1.011 3.281 2.583 3.281 1.415 0 2.256-.8 2.284-2.05h-2.147v-1.545h4.129v1.23c0 2.598-1.777 4.184-4.28 4.184-2.775 0-4.661-1.942-4.661-5.072 0-3.213 2.01-5.1 4.62-5.1 2.23 0 3.952 1.367 4.225 3.322zm11.586-3.185V17h-1.778l-4.347-6.29h-.082V17h-2.051V7.102h1.805l4.32 6.289h.096V7.1zM68.803 17V7.102h6.644v1.695h-4.594v2.406h4.253v1.695h-4.252v2.407h4.607V17zm7.894 0V7.102h3.883c2.255 0 3.54 1.271 3.54 3.226 0 1.354-.621 2.338-1.75 2.817L84.477 17h-2.27l-1.886-3.514h-1.572V17zm2.05-5.182h1.45c1.217 0 1.805-.505 1.805-1.49 0-.998-.588-1.545-1.805-1.545h-1.45z"/></svg>