<svg xmlns="http://www.w3.org/2000/svg" width="80" height="80" fill="none" viewBox="0 0 80 80"><path fill="#d060f8" d="M39.999 0c5.822 0 10.559 4.639 10.72 10.422h.008v3.68l2.604-2.604.006.006c4.204-3.974 10.832-3.905 14.95.212 4.116 4.117 4.185 10.745.211 14.949l.005.005-.19.19-.028.028-2.386 2.385h3.68v.008C75.362 29.444 80 34.18 80 40.001s-4.638 10.557-10.42 10.72v.008h-3.682L68.5 53.33l-.006.006c3.973 4.204 3.905 10.832-.212 14.948-4.116 4.117-10.744 4.186-14.948.213l-.006.005-2.601-2.602v3.68h-.008C50.556 75.361 45.82 80 39.999 80s-10.557-4.638-10.72-10.42h-.008V65.9l-2.327 2.328-.053.056q-.03.027-.058.054l-.161.161-.004-.004c-4.204 3.974-10.832 3.906-14.95-.21-4.116-4.118-4.185-10.747-.211-14.951l-.007-.007 2.6-2.6h-3.678v-.007C4.639 50.559 0 45.823 0 40s4.639-10.559 10.422-10.72v-.008h3.677l-2.602-2.601.006-.006c-3.975-4.204-3.906-10.833.21-14.95 4.118-4.117 10.747-4.185 14.951-.21l.005-.006 2.602 2.602v-3.68h.008C29.441 4.639 34.177 0 40 0"/></svg>