<svg xmlns="http://www.w3.org/2000/svg" width="116" height="24" fill="none" viewBox="0 0 116 24"><rect width="116" height="24" fill="#4b48f5" rx="12"/><path fill="#d9e3fc" d="M20.216 17V7.102h6.522v1.695h-4.47v2.406h4.046v1.695h-4.047V17zm7.525 0V7.102h3.883c2.256 0 3.541 1.271 3.541 3.226 0 1.354-.622 2.338-1.75 2.817L35.521 17h-2.27l-1.886-3.514h-1.573V17zm2.051-5.182h1.45c1.216 0 1.804-.505 1.804-1.49 0-.998-.588-1.545-1.805-1.545h-1.449zm15.51.233c0 3.226-2.01 5.086-4.621 5.086-2.64 0-4.635-1.873-4.635-5.086 0-3.227 1.996-5.086 4.635-5.086 2.61 0 4.62 1.86 4.62 5.086m-2.092 0c0-2.12-.998-3.268-2.53-3.268-1.53 0-2.542 1.149-2.542 3.268s1.011 3.267 2.543 3.267c1.53 0 2.529-1.148 2.529-3.267M54.686 7.1V17h-1.777l-4.348-6.29h-.082V17h-2.05V7.102h1.804l4.32 6.289h.096V7.1zm.935 1.696V7.102h8.107v1.695h-3.035V17h-2.037V8.797zm13.172 2.447v1.613H64.28v-1.613zM70.165 17V7.102h6.645v1.695h-4.594v2.406h4.252v1.695h-4.252v2.407h4.607V17zm16.152-9.898V17H84.54l-4.348-6.29h-.082V17h-2.05V7.102h1.804l4.32 6.289h.096V7.1zM91.122 17h-3.487V7.102h3.527c2.981 0 4.8 1.859 4.8 4.935 0 3.104-1.819 4.963-4.84 4.963m-1.436-1.764h1.353c1.887 0 2.871-.984 2.871-3.199 0-2.201-.984-3.172-2.857-3.172h-1.367z"/></svg>