<svg width="50" height="50" viewBox="0 0 50 50" fill="none" xmlns="http://www.w3.org/2000/svg">
<path d="M24.9993 4.16675C22.2635 4.16675 19.5544 4.70562 17.0268 5.75259C14.4992 6.79956 12.2025 8.33414 10.268 10.2687C6.36095 14.1757 4.16602 19.4747 4.16602 25.0001C4.16602 34.2084 10.1452 42.0209 18.416 44.7918C19.4577 44.9584 19.791 44.3126 19.791 43.7501V40.2292C14.0202 41.4792 12.791 37.4376 12.791 37.4376C11.8327 35.0209 10.4785 34.3751 10.4785 34.3751C8.58268 33.0834 10.6243 33.1251 10.6243 33.1251C12.7077 33.2709 13.8118 35.2709 13.8118 35.2709C15.6243 38.4376 18.6868 37.5001 19.8743 37.0001C20.0618 35.6459 20.6035 34.7292 21.1868 34.2084C16.5618 33.6876 11.7077 31.8959 11.7077 23.9584C11.7077 21.6459 12.4993 19.7917 13.8535 18.3126C13.6452 17.7917 12.916 15.6251 14.0618 12.8126C14.0618 12.8126 15.8118 12.2501 19.791 14.9376C21.4368 14.4792 23.2285 14.2501 24.9993 14.2501C26.7702 14.2501 28.5618 14.4792 30.2077 14.9376C34.1868 12.2501 35.9368 12.8126 35.9368 12.8126C37.0827 15.6251 36.3535 17.7917 36.1452 18.3126C37.4993 19.7917 38.291 21.6459 38.291 23.9584C38.291 31.9167 33.416 33.6667 28.7702 34.1876C29.5202 34.8334 30.2077 36.1043 30.2077 38.0418V43.7501C30.2077 44.3126 30.541 44.9793 31.6035 44.7918C39.8743 42.0001 45.8327 34.2084 45.8327 25.0001C45.8327 22.2642 45.2938 19.5551 44.2468 17.0275C43.1999 14.4999 41.6653 12.2032 39.7307 10.2687C37.7962 8.33414 35.4995 6.79956 32.9719 5.75259C30.4443 4.70562 27.7352 4.16675 24.9993 4.16675Z" fill="white"/>
</svg>
