<svg width="50" height="50" viewBox="0 0 50 50" fill="none" xmlns="http://www.w3.org/2000/svg">
<path d="M27.3929 22.6067C26.1637 21.3776 24.5091 20.668 22.7714 20.6246C21.0336 20.5812 19.3457 21.2074 18.0567 22.3736L17.8114 22.6067L13.9794 26.4401C12.7314 27.6903 12.021 29.3786 11.9997 31.145C11.9785 32.9115 12.6479 34.6163 13.8655 35.8963C15.0831 37.1762 16.7524 37.93 18.5177 37.9969C20.283 38.0639 22.0046 37.4387 23.3156 36.2546L23.5595 36.0215L26.4349 33.1462C26.6779 32.9023 26.819 32.5751 26.8295 32.231C26.84 31.8869 26.7191 31.5517 26.4914 31.2935C26.2638 31.0352 25.9463 30.8734 25.6036 30.8407C25.2609 30.8081 24.9186 30.9071 24.6462 31.1177L24.5189 31.2301L21.6435 34.1055C20.8981 34.8552 19.89 35.2851 18.833 35.3039C17.7759 35.3227 16.7532 34.929 15.9816 34.2062C15.2101 33.4835 14.7504 32.4886 14.7002 31.4326C14.6499 30.3766 15.013 29.3426 15.7125 28.5499L15.8954 28.3561L19.7274 24.5241C20.1049 24.1465 20.5531 23.847 21.0463 23.6427C21.5396 23.4384 22.0683 23.3332 22.6022 23.3332C23.1361 23.3332 23.6647 23.4384 24.158 23.6427C24.6512 23.847 25.0994 24.1465 25.4769 24.5241C25.7311 24.7782 26.0759 24.9208 26.4354 24.9207C26.7948 24.9206 27.1395 24.7777 27.3936 24.5234C27.6476 24.2691 27.7903 23.9244 27.7902 23.5649C27.7901 23.2055 27.6471 22.8608 27.3929 22.6067ZM36.0163 13.9833C34.7871 12.7542 33.1325 12.0445 31.3948 12.0011C29.6571 11.9578 27.9691 12.5839 26.6801 13.7502L26.4349 13.9833L23.5608 16.86C23.3178 17.1038 23.1767 17.4311 23.1662 17.7752C23.1557 18.1193 23.2766 18.4545 23.5043 18.7127C23.732 18.9709 24.0494 19.1328 24.3921 19.1655C24.7348 19.1981 25.0771 19.0991 25.3495 18.8885L25.4769 18.776L28.3509 15.902C29.0976 15.1602 30.1028 14.7369 31.1552 14.7212C32.2076 14.7055 33.2251 15.0985 33.9936 15.8177C34.7621 16.5369 35.2217 17.5261 35.2757 18.5772C35.3297 19.6283 34.9739 20.6594 34.2832 21.4536L34.1003 21.6487L30.2669 25.4821C29.5046 26.2442 28.4708 26.6723 27.3929 26.6723C26.315 26.6723 25.2812 26.2442 24.5189 25.4821C24.393 25.3562 24.2437 25.2563 24.0793 25.1881C23.9149 25.12 23.7386 25.0848 23.5606 25.0848C23.3827 25.0847 23.2064 25.1197 23.042 25.1878C22.8775 25.2558 22.7281 25.3556 22.6022 25.4814C22.4763 25.6072 22.3764 25.7566 22.3082 25.921C22.24 26.0854 22.2049 26.2616 22.2049 26.4396C22.2048 26.6176 22.2398 26.7938 22.3078 26.9583C22.3759 27.1228 22.4757 27.2722 22.6015 27.3981C23.8307 28.6272 25.4853 29.3368 27.223 29.3802C28.9607 29.4236 30.6487 28.7974 31.9377 27.6312L32.1843 27.3981L36.0163 23.5647C37.2865 22.2942 38 20.5712 38 18.7747C38 16.9781 37.2865 15.2538 36.0163 13.9833Z" fill="white"/>
</svg>
