<svg width="444" height="504" viewBox="0 0 444 504" fill="none" xmlns="http://www.w3.org/2000/svg">
<path d="M205.5 479.5C205.5 490.916 214.634 502.333 228.334 502.333H319.667C333.367 502.333 342.5 490.916 342.5 479.5V456.666H205.5V479.5ZM274 45.6665C184.95 45.6665 114.167 116.45 114.167 205.5C114.167 260.3 141.567 308.25 182.667 335.65V388.166C182.667 399.583 191.8 411 205.5 411H342.5C356.2 411 365.334 399.583 365.334 388.166V335.65C406.434 305.966 433.834 258.016 433.834 205.5C433.834 116.45 363.05 45.6665 274 45.6665Z" fill="#2E61E0"/>
</svg>
