<svg width="320" height="457" viewBox="0 0 320 457" fill="none" xmlns="http://www.w3.org/2000/svg">
<path d="M91.3333 433.833C91.3333 445.25 100.467 456.667 114.167 456.667H205.5C219.2 456.667 228.333 445.25 228.333 433.833V411H91.3333V433.833ZM159.833 0C70.7833 0 0 70.7833 0 159.833C0 214.633 27.4 262.583 68.5 289.983V342.5C68.5 353.917 77.6333 365.333 91.3333 365.333H228.333C242.033 365.333 251.167 353.917 251.167 342.5V289.983C292.267 260.3 319.667 212.35 319.667 159.833C319.667 70.7833 248.883 0 159.833 0Z" fill="#4B48F5"/>
</svg>
