<svg width="90" height="90" viewBox="0 0 90 90" fill="none" xmlns="http://www.w3.org/2000/svg">
<mask id="mask0_354_2647" style="mask-type:luminance" maskUnits="userSpaceOnUse" x="6" y="6" width="78" height="78">
<path d="M66.1704 7.14307H24.0077C19.5348 7.14307 15.2451 8.91992 12.0822 12.0827C8.91943 15.2455 7.14258 19.5352 7.14258 24.0081V66.1708C7.14258 70.6437 8.91943 74.9334 12.0822 78.0963C15.2451 81.2591 19.5348 83.0359 24.0077 83.0359H66.1704C70.6433 83.0359 74.933 81.2591 78.0958 78.0963C81.2586 74.9334 83.0354 70.6437 83.0354 66.1708V24.0081C83.0354 19.5352 81.2586 15.2455 78.0958 12.0827C74.933 8.91992 70.6433 7.14307 66.1704 7.14307Z" fill="white" stroke="white" stroke-width="1.78571" stroke-linejoin="round"/>
<path d="M45.0877 61.9548C49.5606 61.9548 53.8503 60.1779 57.0131 57.0151C60.176 53.8523 61.9528 49.5626 61.9528 45.0897C61.9528 40.6168 60.176 36.3271 57.0131 33.1643C53.8503 30.0015 49.5606 28.2246 45.0877 28.2246C40.6148 28.2246 36.3251 30.0015 33.1623 33.1643C29.9995 36.3271 28.2227 40.6168 28.2227 45.0897C28.2227 49.5626 29.9995 53.8523 33.1623 57.0151C36.3251 60.1779 40.6148 61.9548 45.0877 61.9548Z" fill="black" stroke="black" stroke-width="1.78571" stroke-linejoin="round"/>
<path d="M68.2788 26.1156C69.397 26.1156 70.4694 25.6714 71.2601 24.8807C72.0508 24.09 72.495 23.0176 72.495 21.8994C72.495 20.7812 72.0508 19.7087 71.2601 18.918C70.4694 18.1273 69.397 17.6831 68.2788 17.6831C67.1605 17.6831 66.0881 18.1273 65.2974 18.918C64.5067 19.7087 64.0625 20.7812 64.0625 21.8994C64.0625 23.0176 64.5067 24.09 65.2974 24.8807C66.0881 25.6714 67.1605 26.1156 68.2788 26.1156Z" fill="black"/>
</mask>
<g mask="url(#mask0_354_2647)">
<path d="M-5.50781 -5.50537H95.6827V95.6851H-5.50781V-5.50537Z" fill="#C9CFD5"/>
</g>
</svg>
