<svg width="78" height="78" viewBox="0 0 78 78" fill="none" xmlns="http://www.w3.org/2000/svg">
<mask id="mask0_166_4772" style="mask-type:luminance" maskUnits="userSpaceOnUse" x="0" y="0" width="78" height="78">
<path d="M59.9204 0.893066H17.7577C13.2848 0.893066 8.99506 2.66992 5.83224 5.83273C2.66943 8.99555 0.892578 13.2852 0.892578 17.7581V59.9208C0.892578 64.3937 2.66943 68.6834 5.83224 71.8463C8.99506 75.0091 13.2848 76.7859 17.7577 76.7859H59.9204C64.3933 76.7859 68.683 75.0091 71.8458 71.8463C75.0086 68.6834 76.7854 64.3937 76.7854 59.9208V17.7581C76.7854 13.2852 75.0086 8.99555 71.8458 5.83273C68.683 2.66992 64.3933 0.893066 59.9204 0.893066Z" fill="white" stroke="white" stroke-width="1.78571" stroke-linejoin="round"/>
<path d="M38.8377 55.7048C43.3106 55.7048 47.6003 53.9279 50.7631 50.7651C53.926 47.6023 55.7028 43.3126 55.7028 38.8397C55.7028 34.3668 53.926 30.0771 50.7631 26.9143C47.6003 23.7515 43.3106 21.9746 38.8377 21.9746C34.3648 21.9746 30.0751 23.7515 26.9123 26.9143C23.7495 30.0771 21.9727 34.3668 21.9727 38.8397C21.9727 43.3126 23.7495 47.6023 26.9123 50.7651C30.0751 53.9279 34.3648 55.7048 38.8377 55.7048Z" fill="black" stroke="black" stroke-width="1.78571" stroke-linejoin="round"/>
<path d="M62.0288 19.8656C63.147 19.8656 64.2194 19.4214 65.0101 18.6307C65.8008 17.84 66.245 16.7676 66.245 15.6494C66.245 14.5312 65.8008 13.4587 65.0101 12.668C64.2194 11.8773 63.147 11.4331 62.0288 11.4331C60.9105 11.4331 59.8381 11.8773 59.0474 12.668C58.2567 13.4587 57.8125 14.5312 57.8125 15.6494C57.8125 16.7676 58.2567 17.84 59.0474 18.6307C59.8381 19.4214 60.9105 19.8656 62.0288 19.8656Z" fill="black"/>
</mask>
<g mask="url(#mask0_166_4772)">
<path d="M-11.7568 -11.7554H89.4336V89.4351H-11.7568V-11.7554Z" fill="#DFE3E7"/>
</g>
</svg>
