<svg width="90" height="90" viewBox="0 0 90 90" fill="none" xmlns="http://www.w3.org/2000/svg">
<path d="M65.728 7.14307H24.45C19.8598 7.14307 15.4576 8.96653 12.2118 12.2123C8.96604 15.4581 7.14258 19.8603 7.14258 24.4505V65.7285C7.14258 70.3187 8.96604 74.7209 12.2118 77.9667C15.4576 81.2125 19.8598 83.0359 24.45 83.0359H65.728C70.3182 83.0359 74.7204 81.2125 77.9662 77.9667C81.212 74.7209 83.0354 70.3187 83.0354 65.7285V24.4505C83.0354 19.8603 81.212 15.4581 77.9662 12.2123C74.7204 8.96653 70.3182 7.14307 65.728 7.14307ZM32.8022 68.41C32.8144 68.6219 32.7831 68.834 32.7104 69.0333C32.6376 69.2326 32.5249 69.415 32.3791 69.5692C32.2333 69.7233 32.0575 69.8461 31.8626 69.9298C31.6676 70.0136 31.4576 70.0567 31.2454 70.0563H24.3177C23.8999 70.0461 23.5028 69.8724 23.2117 69.5726C22.9206 69.2728 22.7588 68.8707 22.7609 68.4528V39.6408C22.7552 39.4328 22.7913 39.2257 22.8669 39.0319C22.9426 38.838 23.0564 38.6613 23.2015 38.5122C23.3466 38.3631 23.5202 38.2446 23.7119 38.1637C23.9036 38.0828 24.1096 38.0411 24.3177 38.0412H31.2454C31.4535 38.0411 31.6595 38.0828 31.8512 38.1637C32.0429 38.2446 32.2165 38.3631 32.3616 38.5122C32.5067 38.6613 32.6205 38.838 32.6962 39.0319C32.7718 39.2257 32.8079 39.4328 32.8022 39.6408V68.41ZM27.6531 31.9814C26.9031 31.9758 26.1615 31.8225 25.4707 31.5303C24.7799 31.2381 24.1534 30.8127 23.6271 30.2783C23.1007 29.744 22.6847 29.1112 22.4029 28.4161C22.121 27.721 21.9789 26.9772 21.9845 26.2272C21.9901 25.4772 22.1434 24.7356 22.4356 24.0448C22.7279 23.354 23.1533 22.7275 23.6876 22.2012C24.2219 21.6748 24.8547 21.2588 25.5498 20.977C26.2449 20.6951 26.9887 20.553 27.7387 20.5586C29.2275 20.607 30.6383 21.2353 31.6703 22.3094C32.7023 23.3835 33.2736 24.8184 33.2625 26.3079C33.2513 27.7974 32.6585 29.2235 31.6105 30.282C30.5625 31.3405 29.1424 31.9476 27.6531 31.9737M69.7522 68.3633C69.7504 68.7566 69.596 69.1337 69.3216 69.4154C69.0472 69.6971 68.6742 69.8613 68.2811 69.8734H60.9681C60.5744 69.8613 60.2008 69.6965 59.9263 69.414C59.6517 69.1315 59.4978 68.7533 59.497 68.3594V55.0334C59.497 53.0446 60.1041 46.3816 54.2195 46.3816C49.6309 46.3816 48.7241 51.052 48.5489 53.1302V68.663C48.5491 69.0576 48.3956 69.4367 48.121 69.7201C47.8464 70.0034 47.4722 70.1687 47.0778 70.1808H39.9828C39.5809 70.1798 39.1958 70.0194 38.912 69.7349C38.6282 69.4504 38.4688 69.0649 38.4688 68.663V39.5007C38.481 39.1063 38.6462 38.7321 38.9296 38.4574C39.2129 38.1828 39.5921 38.0293 39.9867 38.0295H47.0778C47.4724 38.0293 47.8516 38.1828 48.1349 38.4574C48.4182 38.7321 48.5835 39.1063 48.5956 39.5007V42.011C49.631 40.4955 51.0605 39.2915 52.7299 38.5289C54.3993 37.7662 56.2453 37.4738 58.0686 37.6831C69.8807 37.6831 69.8379 48.7168 69.8379 54.9906L69.7522 68.3633Z" fill="white"/>
</svg>
