<svg width="76" height="76" viewBox="0 0 76 76" fill="none" xmlns="http://www.w3.org/2000/svg">
<path d="M58.5854 0H17.3075C12.7172 0 8.31502 1.82346 5.06924 5.06924C1.82346 8.31502 0 12.7172 0 17.3075V58.5854C0 63.1756 1.82346 67.5778 5.06924 70.8236C8.31502 74.0694 12.7172 75.8929 17.3075 75.8929H58.5854C63.1756 75.8929 67.5778 74.0694 70.8236 70.8236C74.0694 67.5778 75.8929 63.1756 75.8929 58.5854V17.3075C75.8929 12.7172 74.0694 8.31502 70.8236 5.06924C67.5778 1.82346 63.1756 0 58.5854 0ZM25.6596 61.2669C25.6718 61.4788 25.6405 61.6909 25.5678 61.8902C25.495 62.0896 25.3823 62.2719 25.2365 62.4261C25.0907 62.5803 24.9149 62.703 24.72 62.7868C24.525 62.8706 24.315 62.9136 24.1028 62.9132H17.1751C16.7574 62.9031 16.3603 62.7294 16.0692 62.4295C15.7781 62.1297 15.6162 61.7276 15.6184 61.3098V32.4977C15.6126 32.2897 15.6487 32.0826 15.7243 31.8888C15.8 31.695 15.9138 31.5182 16.0589 31.3691C16.204 31.22 16.3776 31.1015 16.5693 31.0206C16.761 30.9397 16.967 30.898 17.1751 30.8981H24.1028C24.3109 30.898 24.5169 30.9397 24.7086 31.0206C24.9003 31.1015 25.0739 31.22 25.219 31.3691C25.3642 31.5182 25.4779 31.695 25.5536 31.8888C25.6293 32.0826 25.6653 32.2897 25.6596 32.4977V61.2669ZM20.5105 24.8384C19.7605 24.8327 19.0189 24.6795 18.3281 24.3872C17.6373 24.095 17.0109 23.6696 16.4845 23.1353C15.9581 22.6009 15.5421 21.9682 15.2603 21.2731C14.9785 20.578 14.8363 19.8342 14.8419 19.0841C14.8475 18.3341 15.0008 17.5925 15.2931 16.9017C15.5853 16.2109 16.0107 15.5845 16.545 15.0581C17.0794 14.5317 17.7121 14.1157 18.4072 13.8339C19.1023 13.5521 19.8461 13.4099 20.5962 13.4155C22.0849 13.4639 23.4958 14.0922 24.5277 15.1663C25.5597 16.2405 26.1311 17.6753 26.1199 19.1648C26.1087 20.6543 25.5159 22.0804 24.4679 23.1389C23.42 24.1975 21.9998 24.8045 20.5105 24.8306M62.6097 61.2202C62.6078 61.6135 62.4534 61.9907 62.179 62.2724C61.9046 62.554 61.5316 62.7182 61.1385 62.7303H53.8256C53.4318 62.7182 53.0582 62.5535 52.7837 62.271C52.5092 61.9884 52.3552 61.6103 52.3544 61.2164V47.8903C52.3544 45.9016 52.9615 39.2386 47.0769 39.2386C42.4883 39.2386 41.5815 43.9089 41.4064 45.9872V61.5199C41.4066 61.9145 41.2531 62.2937 40.9784 62.577C40.7038 62.8604 40.3296 63.0256 39.9352 63.0378H32.8402C32.4383 63.0367 32.0532 62.8764 31.7694 62.5918C31.4856 62.3073 31.3262 61.9218 31.3262 61.5199V32.3576C31.3384 31.9632 31.5036 31.589 31.787 31.3144C32.0703 31.0398 32.4495 30.8863 32.8441 30.8864H39.9352C40.3298 30.8863 40.709 31.0398 40.9923 31.3144C41.2757 31.589 41.4409 31.9632 41.4531 32.3576V34.8679C42.4884 33.3525 43.9179 32.1485 45.5873 31.3858C47.2567 30.6231 49.1027 30.3307 50.9261 30.5401C62.7381 30.5401 62.6953 41.5737 62.6953 47.8475L62.6097 61.2202Z" fill="#DFE3E7"/>
</svg>
