<svg width="50" height="50" viewBox="0 0 50 50" fill="none" xmlns="http://www.w3.org/2000/svg">
<path d="M25 50C28.6391 50 31.5989 47.1009 31.7002 43.4863H31.7051V41.1875L33.3311 42.8135L33.335 42.8096C35.9624 45.2931 40.1047 45.2505 42.6777 42.6777C45.2506 40.1048 45.2939 35.9625 42.8105 33.335L42.8135 33.3311L41.1875 31.7051H43.4863V31.7002C47.101 31.599 50 28.6391 50 25C49.9998 21.361 47.1009 18.401 43.4863 18.2998V18.2949H41.1875L42.8135 16.6689L42.8096 16.6641C45.2923 14.0365 45.2485 9.89495 42.6758 7.32227C40.1031 4.74966 35.9615 4.70576 33.334 7.18848L33.3311 7.18652L33.2217 7.2959C33.2127 7.30475 33.2023 7.31335 33.1934 7.32227C33.1842 7.3314 33.176 7.34142 33.167 7.35059L31.7051 8.8125V6.51367H31.7002C31.599 2.89901 28.6391 0 25 0C21.361 0.000167847 18.401 2.89911 18.2998 6.51367H18.2949V8.8125L16.832 7.34863C16.8231 7.33964 16.8146 7.33024 16.8057 7.32129C16.7966 7.31219 16.7865 7.30394 16.7773 7.29492L16.6699 7.18652L16.667 7.18945C14.0395 4.70522 9.89645 4.74816 7.32324 7.32129C4.75014 9.8945 4.70717 14.0376 7.19141 16.665L7.1875 16.6689L8.81348 18.2949H6.51367V18.2998C2.89921 18.4011 0.000166931 21.3611 0 25C0 28.6391 2.89911 31.5989 6.51367 31.7002V31.7051H8.81152L7.34863 33.168C7.33964 33.1769 7.33024 33.1854 7.32129 33.1943C7.31219 33.2034 7.30394 33.2135 7.29492 33.2227L7.18652 33.3301L7.18945 33.333C4.70521 35.9605 4.74816 40.1035 7.32129 42.6768C9.8945 45.2499 14.0376 45.2928 16.665 42.8086L16.6689 42.8125L18.2949 41.1875V43.4863H18.2998C18.4011 47.1008 21.3611 49.9998 25 50Z" fill="#D060F8"/>
</svg>
