<svg width="30" height="30" viewBox="0 0 30 30" fill="none" xmlns="http://www.w3.org/2000/svg">
<rect width="30" height="30" rx="5" fill="white"/>
<g clip-path="url(#clip0_354_7405)">
<path d="M9.63184 5C10.306 5.00013 10.8534 5.53735 10.8721 6.20703H10.874V6.63184L11.1748 6.33105L11.1768 6.33301C11.6636 5.873 12.4296 5.88078 12.9062 6.35742C13.3825 6.83409 13.3906 7.60025 12.9307 8.08691L12.9316 8.08789L12.6299 8.38965H13.0557V8.3916C13.7258 8.40986 14.2637 8.95732 14.2637 9.63184C14.2635 10.3062 13.7257 10.8538 13.0557 10.8721V10.874H12.6299L12.9307 11.1748L12.9297 11.1768C13.3898 11.6635 13.3829 12.4305 12.9062 12.9072C12.4295 13.3836 11.6625 13.3907 11.1758 12.9307L11.1738 12.9316L10.874 12.6318V13.0566H10.8721C10.8532 13.7261 10.3058 14.2635 9.63184 14.2637C8.95771 14.2637 8.41046 13.7262 8.3916 13.0566H8.38965V12.6299L8.08887 12.9316L8.08691 12.9307C7.60016 13.3906 6.8331 13.3837 6.35645 12.9072C5.8798 12.4306 5.873 11.6636 6.33301 11.1768L6.33203 11.1748L6.63281 10.874H6.20605V10.8721C5.53688 10.8529 5.00023 10.3056 5 9.63184C5 8.9579 5.53675 8.41074 6.20605 8.3916V8.38965H6.63184L6.33105 8.08887L6.33203 8.08691C5.87179 7.60015 5.87878 6.83317 6.35547 6.35645C6.8322 5.87975 7.59917 5.87276 8.08594 6.33301L8.08789 6.33203L8.38965 6.63379V6.20703H8.3916C8.41024 5.53727 8.95757 5 9.63184 5Z" fill="#F46A54"/>
</g>
<g clip-path="url(#clip1_354_7405)">
<path d="M5 16.2637C5 15.9875 5.22386 15.7637 5.5 15.7637H9.63158C12.1895 15.7637 14.2632 17.8373 14.2632 20.3953C14.2632 22.9532 12.1895 25.0268 9.63158 25.0268H5.5C5.22386 25.0268 5 24.803 5 24.5268V16.2637Z" fill="#A96EFC"/>
</g>
<g clip-path="url(#clip2_354_7405)">
<path d="M15.7637 5.5C15.7637 5.22386 15.9875 5 16.2637 5H20.3952C22.9532 5 25.0268 7.07363 25.0268 9.63158C25.0268 12.1895 22.9532 14.2632 20.3953 14.2632H16.2637C15.9875 14.2632 15.7637 14.0393 15.7637 13.7632V5.5Z" fill="#A96EFC"/>
</g>
<g clip-path="url(#clip3_354_7405)">
<path d="M23.9209 16C24.473 16.0002 24.9209 16.4478 24.9209 17V19.6318C24.9208 20.0628 24.6469 20.4279 24.2646 20.5684C24.5183 20.7497 24.6846 21.0462 24.6846 21.3818V24.0127C24.6846 24.5649 24.2367 25.0125 23.6846 25.0127H17C16.4477 25.0127 16 24.565 16 24.0127V21.3818C16 20.9511 16.2724 20.5841 16.6543 20.4434C16.4017 20.2619 16.2364 19.9666 16.2363 19.6318V17C16.2363 16.4477 16.684 16 17.2363 16H23.9209Z" fill="#4B48F5"/>
</g>
<defs>
<clipPath id="clip0_354_7405">
<rect width="9.26316" height="9.26316" fill="white" transform="translate(5 5)"/>
</clipPath>
<clipPath id="clip1_354_7405">
<rect width="9.26316" height="9.26316" fill="white" transform="translate(5 15.7637)"/>
</clipPath>
<clipPath id="clip2_354_7405">
<rect width="9.26316" height="9.26316" fill="white" transform="translate(15.7637 5)"/>
</clipPath>
<clipPath id="clip3_354_7405">
<rect width="9.26316" height="9.26316" fill="white" transform="translate(15.7637 15.7637)"/>
</clipPath>
</defs>
</svg>
