<svg width="30" height="30" viewBox="0 0 30 30" fill="none" xmlns="http://www.w3.org/2000/svg">
<rect width="30" height="30" rx="5" fill="#333333"/>
<g clip-path="url(#clip0_166_4147)">
<path d="M9.63184 5C10.3061 5 10.8535 5.53721 10.8721 6.20703H10.874V6.63281L11.1748 6.33203L11.1768 6.33301C11.6634 5.87266 12.4304 5.87996 12.9072 6.35645C13.3839 6.83324 13.3911 7.60019 12.9307 8.08691L12.9316 8.08789L12.6299 8.38965H13.0566V8.3916C13.7262 8.41049 14.2627 8.95773 14.2627 9.63184C14.2626 10.3058 13.7261 10.8532 13.0566 10.8721V10.874H12.6318L12.9326 11.1748L12.9307 11.1768C13.3899 11.6635 13.3824 12.4298 12.9062 12.9062C12.4298 13.3827 11.6636 13.39 11.1768 12.9307L11.1758 12.9316L11.1641 12.9199C11.1593 12.9154 11.1541 12.9109 11.1494 12.9062C11.1444 12.9012 11.1397 12.8957 11.1348 12.8906L10.874 12.6299V13.0566H10.8721C10.8531 13.7261 10.3059 14.2627 9.63184 14.2627C8.95799 14.2624 8.41054 13.726 8.3916 13.0566H8.38965V12.6299L8.08789 12.9316L8.08691 12.9307C7.60017 13.3907 6.83312 13.3838 6.35645 12.9072C5.88008 12.4305 5.87303 11.6634 6.33301 11.1768L6.33203 11.1748L6.63281 10.874H6.20703V10.8721C5.53757 10.8532 5.00013 10.3058 5 9.63184C5 8.95773 5.5375 8.41049 6.20703 8.3916V8.38965H6.63379L6.36914 8.125C6.36506 8.12103 6.3605 8.1173 6.35645 8.11328C6.3521 8.10894 6.348 8.10401 6.34375 8.09961L6.33203 8.08789L6.33301 8.08691C5.87274 7.60018 5.87982 6.83319 6.35645 6.35645C6.8332 5.87989 7.6002 5.87277 8.08691 6.33301L8.08887 6.33105L8.38965 6.63184V6.20703H8.3916C8.41016 5.53737 8.95775 5.00026 9.63184 5Z" fill="#F75D45"/>
</g>
<g clip-path="url(#clip1_166_4147)">
<path d="M5 16.2632C5 15.987 5.22386 15.7632 5.5 15.7632H9.63158C12.1895 15.7632 14.2632 17.8368 14.2632 20.3948C14.2632 22.9527 12.1895 25.0263 9.63158 25.0263H5.5C5.22386 25.0263 5 24.8025 5 24.5263V16.2632Z" fill="#36B2ED"/>
</g>
<g clip-path="url(#clip2_166_4147)">
<path d="M15.7637 5.5C15.7637 5.22386 15.9875 5 16.2637 5H20.3952C22.9532 5 25.0268 7.07363 25.0268 9.63158C25.0268 12.1895 22.9532 14.2632 20.3953 14.2632H16.2637C15.9875 14.2632 15.7637 14.0393 15.7637 13.7632V5.5Z" fill="#36B2ED"/>
</g>
<g clip-path="url(#clip3_166_4147)">
<rect x="16.3428" y="15.7632" width="8.68421" height="4.63158" rx="1" fill="#FFB236"/>
<rect x="15.7637" y="20.3945" width="8.68421" height="4.63158" rx="1" fill="#FFB236"/>
</g>
<defs>
<clipPath id="clip0_166_4147">
<rect width="9.26316" height="9.26316" fill="white" transform="translate(5 5)"/>
</clipPath>
<clipPath id="clip1_166_4147">
<rect width="9.26316" height="9.26316" fill="white" transform="translate(5 15.7632)"/>
</clipPath>
<clipPath id="clip2_166_4147">
<rect width="9.26316" height="9.26316" fill="white" transform="translate(15.7637 5)"/>
</clipPath>
<clipPath id="clip3_166_4147">
<rect width="9.26316" height="9.26316" fill="white" transform="translate(15.7637 15.7632)"/>
</clipPath>
</defs>
</svg>
