<svg width="420" height="420" viewBox="0 0 420 420" fill="none" xmlns="http://www.w3.org/2000/svg">
<g clip-path="url(#clip0_166_3697)">
<path d="M13.4106 168.349L251.651 406.59C255.129 410.068 253.45 415.974 248.616 416.876C240.47 418.398 232.242 419.437 223.973 419.987C223.091 420.042 222.208 419.909 221.381 419.595C220.555 419.281 219.805 418.794 219.183 418.167L1.83272 200.817C1.20559 200.195 0.718821 199.445 0.405025 198.619C0.0912299 197.793 -0.0423413 196.909 0.0132629 196.027C0.571075 187.668 1.61779 179.445 3.12389 171.385C4.02623 166.55 9.93248 164.871 13.4106 168.349ZM6.69717 264.812C5.10576 258.882 12.1112 255.142 16.4523 259.483L160.516 403.548C164.858 407.889 161.118 414.893 155.189 413.303C82.9518 393.935 26.0664 337.05 6.69717 264.812ZM27.5758 105.269C29.5987 101.766 34.3794 101.228 37.239 104.089L315.912 382.758C318.774 385.619 318.237 390.4 314.731 392.423C308.817 395.837 302.739 398.961 296.52 401.782C294.174 402.849 291.418 402.311 289.597 400.486L19.5121 130.408C17.6894 128.584 17.1512 125.831 18.216 123.483C21.0385 117.264 24.1627 111.187 27.5774 105.272M209.77 0C325.877 0 420 94.1227 420 210.23C420 271.868 393.475 327.308 351.215 365.761C348.776 367.982 345.033 367.835 342.7 365.503L54.4968 77.2997C52.1654 74.9667 52.0194 71.2244 54.2376 68.7848C92.6922 26.5256 148.134 0 209.77 0Z" fill="#2E61E0"/>
</g>
<defs>
<clipPath id="clip0_166_3697">
<rect width="420" height="420" fill="white"/>
</clipPath>
</defs>
</svg>
