<svg width="160" height="160" viewBox="0 0 160 160" fill="none" xmlns="http://www.w3.org/2000/svg">
<path d="M35.7404 133.326C33.2421 133.326 31.1029 132.441 29.3227 130.67C27.5424 128.9 26.6572 126.761 26.6671 124.253C26.6769 121.745 27.5621 119.606 29.3227 117.836C31.0832 116.066 33.2225 115.181 35.7404 115.181C36.3551 115.181 36.8985 115.225 37.3706 115.313C37.8427 115.412 38.3394 115.584 38.8607 115.83L71.5761 83.1164C70.9614 81.4789 70.8262 79.8021 71.1704 78.0859C71.5147 76.3697 72.3261 74.8748 73.6047 73.6012C74.8833 72.3276 76.3783 71.5162 78.0897 71.1671C79.8109 70.8228 81.4879 70.9581 83.1206 71.5727L115.836 38.8595L115.393 37.3695C115.251 36.8974 115.18 36.3541 115.18 35.7394C115.18 33.2413 116.07 31.1022 117.85 29.3221C119.63 27.542 121.767 26.6569 124.26 26.6667C126.754 26.6765 128.893 27.5617 130.678 29.3221C132.463 31.0826 133.348 33.2217 133.333 35.7394C133.319 38.2571 132.434 40.3962 130.678 42.1566C128.922 43.9171 126.783 44.8022 124.26 44.812C122.746 44.812 121.705 44.5957 121.14 44.1629L88.4244 76.8393C89.0391 78.4719 89.1744 80.1537 88.8301 81.8846C88.4859 83.6155 87.6892 85.1055 86.4401 86.3546C85.1074 87.6823 83.5829 88.5207 81.8666 88.8698C80.1454 89.214 78.4684 89.0665 76.8357 88.4272L44.9317 120.285L45.2194 120.565H71.7163C72.5031 118.923 73.6244 117.612 75.08 116.634C76.5357 115.66 78.161 115.173 79.956 115.173C81.8395 115.173 83.5411 115.655 85.0607 116.619C86.5753 117.578 87.6794 118.893 88.3728 120.565H115.888C116.675 118.893 117.803 117.575 119.274 116.612C120.744 115.653 122.406 115.173 124.26 115.173C126.758 115.173 128.898 116.063 130.678 117.843C132.458 119.623 133.343 121.76 133.333 124.253C133.324 126.746 132.438 128.885 130.678 130.67C128.917 132.456 126.778 133.341 124.26 133.326C122.406 133.326 120.744 132.842 119.274 131.873C117.803 130.899 116.675 129.589 115.888 127.941H88.3728C87.6843 129.613 86.5729 130.931 85.0385 131.895C83.5042 132.854 81.8248 133.333 80.0003 133.333C78.1758 133.333 76.5357 132.846 75.08 131.873C73.6244 130.899 72.5031 129.589 71.7163 127.941H44.0243C43.3359 129.589 42.2294 130.899 40.7048 131.873C39.1754 132.846 37.5206 133.333 35.7404 133.333M35.7404 89.0764C33.2421 89.0764 31.1029 88.1863 29.3227 86.4062C27.5424 84.6261 26.6572 82.4894 26.6671 79.9963C26.6769 77.5032 27.5621 75.3641 29.3227 73.5791C31.0832 71.794 33.2225 70.9089 35.7404 70.9236C38.2583 70.9384 40.3975 71.8235 42.158 73.5791C43.9186 75.3346 44.8038 77.4737 44.8136 79.9963C44.8235 82.519 43.9383 84.658 42.158 86.4136C40.3778 88.1691 38.2386 89.0542 35.7404 89.069M35.7404 44.812C33.2421 44.812 31.1029 43.9269 29.3227 42.1566C27.5424 40.3864 26.6572 38.2473 26.6671 35.7394C26.6769 33.2315 27.5621 31.0924 29.3227 29.3221C31.0832 27.5518 33.2225 26.6667 35.7404 26.6667C38.2583 26.6667 40.3975 27.5518 42.158 29.3221C43.9186 31.0924 44.8038 33.2315 44.8136 35.7394C44.8235 38.2473 43.9383 40.3864 42.158 42.1566C40.3778 43.9269 38.2386 44.812 35.7404 44.812ZM80.0003 44.812C77.502 44.812 75.3628 43.9269 73.5826 42.1566C71.8024 40.3864 70.9172 38.2473 70.927 35.7394C70.9368 33.2315 71.822 31.0924 73.5826 29.3221C75.3432 27.5518 77.4824 26.6667 80.0003 26.6667C82.5182 26.6667 84.6574 27.5518 86.418 29.3221C88.1785 31.0924 89.0637 33.2315 89.0736 35.7394C89.0834 38.2473 88.1982 40.3864 86.418 42.1566C84.6377 43.9269 82.4985 44.812 80.0003 44.812ZM124.26 89.069C121.762 89.069 119.623 88.1838 117.842 86.4136C116.062 84.6433 115.177 82.5042 115.187 79.9963C115.197 77.4884 116.082 75.3493 117.842 73.5791C119.603 71.8088 121.742 70.9236 124.26 70.9236C126.778 70.9236 128.917 71.8088 130.678 73.5791C132.438 75.3493 133.324 77.4884 133.333 79.9963C133.343 82.5042 132.458 84.6433 130.678 86.4136C128.898 88.1838 126.758 89.069 124.26 89.069Z" fill="white"/>
</svg>
