<svg width="160" height="160" viewBox="0 0 160 160" fill="none" xmlns="http://www.w3.org/2000/svg">
<path d="M102.785 35.1011V123.601C102.785 133.454 109.514 139 116.892 139C123.622 139 131 134.339 131 123.601V35.7501C131 26.6641 124.271 21.0001 116.892 21.0001C109.514 21.0001 102.785 27.2541 102.785 35.1011ZM65.8924 80.0001V123.601C65.8924 133.513 72.7396 139 80 139C86.7292 139 94.1077 134.339 94.1077 123.601V80.6491C94.1077 71.5631 87.3785 65.8991 80 65.8991C72.6215 65.8991 65.8924 72.1531 65.8924 80.0001ZM43.1076 110.857C50.8993 110.857 57.2153 117.17 57.2153 124.899C57.2153 128.639 55.7289 132.226 53.0833 134.87C50.4376 137.514 46.8492 139 43.1076 139C39.3661 139 35.7777 137.514 33.132 134.87C30.4863 132.226 29 128.639 29 124.899C29 117.17 35.316 110.857 43.1076 110.857Z" fill="white"/>
</svg>
