<svg width="58" height="58" viewBox="0 0 58 58" fill="none" xmlns="http://www.w3.org/2000/svg">
<path d="M29 0C33.2212 4.64174e-05 36.6539 3.36291 36.7715 7.55566H36.7773V10.2236L38.6641 8.33691L38.6689 8.3418C41.7169 5.46046 46.5221 5.50936 49.5068 8.49414C52.4916 11.4789 52.5405 16.2841 49.6592 19.332L49.6631 19.3359L49.5342 19.4648C49.5248 19.4743 49.5153 19.4847 49.5059 19.4941C49.4966 19.5034 49.4869 19.5123 49.4775 19.5215L47.7773 21.2217H50.4443V21.2275C54.6369 21.3451 57.9996 24.7781 58 28.999C58 33.2203 54.6371 36.6539 50.4443 36.7715V36.7773H47.7773L49.6631 38.6631L49.6582 38.668C52.5393 41.7159 52.4885 46.5211 49.5039 49.5059C46.5192 52.4904 41.7149 52.5402 38.667 49.6592L38.6631 49.6631L38.5342 49.5342C38.5247 49.5248 38.5143 49.5153 38.5049 49.5059C38.4956 49.4966 38.4867 49.4868 38.4775 49.4775L36.7773 47.7773V50.4443H36.7715C36.6538 54.6371 33.2212 58 29 58C24.779 57.9998 21.3452 54.637 21.2275 50.4443H21.2217V47.7764L19.5439 49.4541C19.5271 49.4712 19.5112 49.4898 19.4941 49.5068C19.4769 49.5241 19.4588 49.5406 19.4414 49.5576L19.3359 49.6621L19.333 49.6592C16.2851 52.5411 11.4791 52.4918 8.49414 49.5068C5.50945 46.5218 5.45999 41.7158 8.3418 38.668L8.33691 38.6641L10.2236 36.7773H7.55469V36.7715C3.36235 36.6534 0 33.2199 0 28.999C0.000413423 24.7785 3.3626 21.3457 7.55469 21.2275V21.2217H10.2217L8.52148 19.5215C8.51209 19.5122 8.50155 19.5025 8.49219 19.4932C8.48292 19.4839 8.47406 19.4742 8.46484 19.4648L8.33594 19.3359L8.33984 19.333C5.45838 16.2853 5.50786 11.48 8.49219 8.49512C11.4771 5.51023 16.2831 5.46014 19.3311 8.3418L19.3359 8.33691L21.2217 10.2217V7.55566H21.2275C21.3451 3.36301 24.779 0.000242099 29 0Z" fill="#F75820"/>
</svg>
