<svg width="294" height="315" viewBox="0 0 294 315" fill="none" xmlns="http://www.w3.org/2000/svg">
<path d="M267.661 0H26.3164C11.8197 0.0263455 0.0654609 11.718 0 26.1748V287.99C0.0666094 302.455 11.8289 314.152 26.3314 314.173H267.676C282.177 314.151 293.938 302.453 294 287.99V275.778C293.559 260.063 293.118 227.338 293.118 212.504C293.118 204.21 286.976 197.229 279.078 197.229C270.299 197.229 264.597 202.467 260.212 206.826C247.046 218.613 227.298 220.797 210.179 217.742C202.289 215.99 194.824 213.815 188.691 209.888C169.816 198.972 157.532 178.468 157.532 156.651C157.532 134.834 169.816 114.762 188.683 103.413C195.265 99.4862 202.73 97.3029 210.187 95.5595C226.865 92.5046 247.046 94.6798 260.212 106.468C265.039 110.834 270.74 116.064 279.078 116.064C286.976 116.064 293.118 109.083 293.118 100.79C293.118 86.3948 293.559 53.2304 294 37.5228V26.1748C294 11.7799 282.149 0 267.669 0H267.661Z" fill="#2E61E0"/>
</svg>
